<svg width="1440" height="570" viewBox="0 0 1440 570" fill="none" xmlns="http://www.w3.org/2000/svg">
<path d="M120.738 100.274C122.402 100.274 124.073 100.308 125.751 100.379C157.346 101.7 190.208 112.449 226.213 133.243C258.146 151.683 287.666 175.21 312.832 195.814C332.341 211.791 351.631 229.199 370.285 246.034C440.872 309.743 513.864 375.619 616.1 379.833C621.827 380.067 627.554 380.185 633.242 380.185C739.282 380.185 838.269 340.309 934.174 301.676C965.708 288.973 998.318 275.839 1030.55 264.394C1043.16 259.917 1054.19 256.697 1064.28 254.551C1076.27 251.999 1087.05 250.908 1097.24 251.219C1120.87 251.933 1140.9 260.286 1158.48 276.757C1190.1 306.391 1213.25 345.692 1235.64 383.701C1246.12 401.481 1256.95 419.865 1268.35 436.644C1304.36 489.676 1347.8 547.486 1407.78 562.202C1460.91 575.238 1507.87 543.231 1549.31 514.989L1550 515.999C1529.9 529.701 1507.11 545.23 1483.12 555.268C1456.07 566.584 1431.33 569.241 1407.48 563.391C1379.62 556.553 1353.2 540.163 1326.73 513.281C1303.48 489.673 1283.88 461.701 1267.33 437.332C1255.92 420.521 1245.08 402.119 1234.59 384.322C1212.24 346.389 1189.13 307.164 1157.64 277.65C1118.72 241.17 1071.76 251.062 1030.96 265.549C998.751 276.985 966.155 290.116 934.632 302.814C884.156 323.146 831.96 344.172 779.236 359.153C750.834 367.225 724.597 372.931 699.025 376.598C670.299 380.718 643.157 382.176 616.051 381.061C591.372 380.043 567.892 375.583 544.275 367.423C523.246 360.156 502.594 350.106 481.139 336.693C441.32 311.798 404.793 278.832 369.47 246.949C350.826 230.123 331.551 212.725 312.064 196.768C257.664 152.224 193.914 104.46 125.707 101.61C124.014 101.539 122.333 101.505 120.672 101.505C66.583 101.505 29.5721 138.532 -6.60727 179.852L-7.52719 179.047C8.95157 160.227 28.3831 138.868 50.4884 123.596C73.1565 107.934 96.189 100.284 120.743 100.284L120.738 100.274Z" fill="#FFFFFF4D" fill-opacity="0.3"/>
<path d="M115.408 113.513C118.333 113.513 121.281 113.616 124.258 113.824C127.659 114.069 131.135 114.426 134.594 114.883C161.323 118.441 189.033 128.294 219.307 145.004C248.067 160.866 276.104 181.682 300.84 200.047C306.102 203.954 311.073 207.644 316.034 211.282C339.238 228.399 361.536 245.944 383.104 262.909L388.779 267.374C422.749 294.085 462.671 324.299 506.637 344.784C545.498 362.878 583.884 371.673 623.982 371.673L624.073 371.673C647.286 371.617 671.456 369.667 695.913 365.872C747.057 358.087 796.806 342.272 851.878 323.934C864.472 319.758 877.113 315.552 889.34 311.485C922.368 300.497 953.564 290.119 985.107 279.855C1007.62 272.598 1026.27 266.9 1043.82 261.926C1048 260.737 1052.42 259.567 1056.95 258.451C1075.73 253.832 1092.33 251.841 1107.71 252.369C1127.86 253.061 1151.3 256.183 1172.28 274.103L1172.3 274.12C1202.59 302.518 1224.77 340.18 1246.22 376.601C1256.26 393.64 1266.63 411.256 1277.54 427.333C1312.04 478.15 1353.65 533.545 1411.11 547.645C1462.02 560.135 1507.01 529.457 1546.71 502.389L1547.38 503.365C1528.11 516.497 1506.29 531.382 1483.3 541.002C1457.39 551.848 1433.68 554.398 1410.83 548.79C1384.13 542.24 1358.82 526.533 1333.46 500.774C1311.19 478.15 1292.41 451.344 1276.56 427.996C1265.63 411.887 1255.24 394.254 1245.2 377.2C1223.8 340.855 1201.66 303.272 1171.5 274.991C1150.79 257.314 1127.61 254.233 1107.66 253.548C1092.4 253.025 1075.9 255.004 1057.23 259.596C1052.71 260.71 1048.3 261.874 1044.14 263.061C1026.61 268.033 1007.96 273.724 985.469 280.978C953.931 291.242 922.737 301.618 889.711 312.606C877.484 316.672 864.844 320.878 852.25 325.055C797.126 343.409 747.326 359.239 696.091 367.039C671.579 370.841 647.348 372.796 624.073 372.853L623.982 372.853C583.705 372.853 545.158 364.02 506.138 345.851C462.057 325.311 422.069 295.051 388.048 268.297L382.372 263.832C360.812 246.871 338.521 229.334 315.334 212.229C310.371 208.591 305.4 204.899 300.135 200.991C275.429 182.649 247.426 161.859 218.735 146.034C188.593 129.397 161.02 119.588 134.438 116.05C131.003 115.595 127.549 115.241 124.175 114.998C103.371 113.55 83.8715 117.2 64.5623 126.158C34.6139 140.05 10.8817 166.508 -10.8591 192.418L-11.7643 191.657C10.0622 165.644 33.8947 139.078 64.0657 125.084C80.7989 117.323 97.6787 113.508 115.41 113.506L115.408 113.513Z" fill="#FFFFFF4D" fill-opacity="0.3"/>
<path d="M109.769 126.614C114.057 126.614 118.385 126.832 122.764 127.268C126.118 127.6 129.55 128.048 133.256 128.638C160.205 132.949 188.395 143.445 219.437 160.728C242.907 173.776 265.71 189.726 287.759 205.15C298.75 212.84 309.135 220.102 319.239 226.754C346.633 244.789 370.228 260.535 393.496 276.306C435.938 305.074 472.56 327.471 513.333 343.282C552.837 358.573 591.668 365.191 632.045 363.52C655.276 362.468 678.996 359.63 704.558 354.847C746.293 347.037 788.505 333.581 829.328 320.567C840.461 317.017 851.974 313.347 863.283 309.853C912.066 294.901 959.927 282.822 998.384 273.116C1018.2 268.115 1037.94 263.523 1057.08 259.466C1060.87 258.654 1065.04 257.842 1070.21 256.907C1088.35 253.623 1105.03 252.535 1121.21 253.577C1144.55 255.079 1166.6 256.501 1186.08 271.455L1186.13 271.492C1215.09 298.652 1236.29 334.674 1256.8 369.512C1266.39 385.807 1276.31 402.657 1286.74 418.032C1319.72 466.635 1359.5 519.615 1414.45 533.099C1463.13 545.041 1506.15 515.696 1544.11 489.803L1544.75 490.745C1526.33 503.308 1505.46 517.545 1483.48 526.752C1458.7 537.129 1436.03 539.568 1414.18 534.207C1388.65 527.944 1364.45 512.921 1340.2 488.283C1318.9 466.643 1300.95 441.006 1285.8 418.673C1275.34 403.267 1265.42 386.402 1255.82 370.092C1235.36 335.332 1214.2 299.391 1185.37 272.345C1166.16 257.616 1144.29 256.21 1121.14 254.72C1105.05 253.685 1088.46 254.769 1070.41 258.032C1065.26 258.965 1061.1 259.777 1057.32 260.584C1038.2 264.638 1018.47 269.228 998.665 274.224C960.22 283.928 912.374 296.002 863.621 310.944C852.316 314.435 840.806 318.105 829.678 321.653C788.821 334.677 746.575 348.146 704.771 355.968C679.155 360.761 655.384 363.604 632.097 364.66C591.558 366.339 552.575 359.694 512.922 344.346C472.046 328.499 435.363 306.063 392.855 277.253C369.59 261.485 345.999 245.743 318.61 227.711C308.492 221.048 298.102 213.782 287.103 206.087C265.076 190.68 242.3 174.748 218.879 161.727C187.957 144.509 159.89 134.055 133.075 129.766C129.391 129.181 125.981 128.736 122.649 128.405C101.534 126.311 81.611 129.294 61.7367 137.524C30.5774 150.428 6.68619 177.936 -15.1134 205.006L-16.0014 204.289C-3.58115 188.867 7.1315 176.294 19.0525 165.054C33.1681 151.747 46.99 142.395 61.3012 136.467C77.232 129.871 93.1945 126.614 109.769 126.614Z" fill="#FFFFFF4D" fill-opacity="0.3"/>
<path d="M103.961 139.595C109.661 139.595 115.42 139.967 121.267 140.708C124.596 141.131 128.08 141.679 131.918 142.386C159.061 147.434 187.73 158.573 219.567 176.444C239.155 187.417 258.704 200.566 277.609 213.283C293.33 223.858 308.179 233.845 322.444 242.223C339.236 252.083 354.927 260.876 370.104 269.378C379.75 274.783 388.863 279.887 398.213 285.235C435.27 306.426 475.674 327.939 520.034 341.773C560.434 354.336 599.683 358.779 640.026 355.359C662.696 353.436 686.634 349.661 713.211 343.811C746.484 336.49 780.562 325.458 813.52 314.793C833.558 308.307 854.276 301.601 874.694 295.763C920.335 282.857 963.073 275.145 1004.4 267.685C1006.83 267.247 1009.25 266.809 1011.67 266.374C1030.43 262.978 1049.63 259.912 1070.34 257C1074.58 256.394 1078.8 255.897 1083.47 255.356C1100.47 253.389 1117.71 253.196 1134.71 254.776C1139.28 255.202 1143.75 255.513 1148.07 255.814C1167.6 257.172 1184.47 258.346 1199.89 268.801L1199.95 268.855C1227.59 294.779 1247.82 329.162 1267.38 362.413C1276.53 377.964 1285.99 394.046 1295.95 408.721C1327.4 455.107 1365.35 505.675 1417.8 518.542C1464.25 529.938 1505.3 501.922 1541.51 477.203L1542.13 478.113C1524.56 490.107 1504.64 503.7 1483.67 512.489C1460.02 522.398 1438.39 524.727 1417.53 519.611C1393.17 513.634 1370.08 499.296 1346.94 475.779C1326.61 455.122 1309.49 430.653 1295.04 409.34C1285.06 394.635 1275.59 378.539 1266.43 362.971C1246.92 329.799 1226.74 295.499 1199.24 269.686C1184.07 259.42 1167.35 258.258 1148 256.912C1143.67 256.611 1139.19 256.301 1134.61 255.873C1117.68 254.297 1100.52 254.493 1083.6 256.45C1078.93 256.991 1074.72 257.487 1070.5 258.092C1049.79 261.001 1030.62 264.066 1011.86 267.458C1009.44 267.895 1007.02 268.331 1004.6 268.769C963.291 276.224 920.582 283.931 874.992 296.822C854.594 302.655 833.886 309.359 813.857 315.84C780.875 326.515 746.771 337.555 713.446 344.887C686.822 350.744 662.836 354.529 640.116 356.455C599.629 359.888 560.243 355.427 519.704 342.822C475.244 328.959 434.774 307.409 397.662 286.189C388.315 280.846 379.207 275.742 369.561 270.337C354.381 261.833 338.683 253.037 321.881 243.172C307.587 234.777 292.725 224.78 276.99 214.196C258.102 201.493 238.573 188.354 219.024 177.405C187.294 159.596 158.736 148.496 131.715 143.47C127.899 142.766 124.435 142.22 121.128 141.802C99.6094 139.076 79.2604 141.39 58.9165 148.877C26.5169 160.805 2.47891 189.357 -19.3647 217.58L-20.2356 216.907C-10.2007 203.942 1.62515 189.044 14.9872 176.326C29.3449 162.664 43.59 153.347 58.5348 147.845C73.5188 142.33 88.5102 139.597 103.956 139.597L103.961 139.595Z" fill="#FFFFFF4D" fill-opacity="0.3"/>
<path d="M97.8924 152.444C105.08 152.444 112.358 153.014 119.77 154.151C123.078 154.66 126.613 155.309 130.578 156.141C157.887 161.905 187.038 173.691 219.694 192.165C236.464 201.629 253.508 212.796 269.992 223.595C289.541 236.404 308.003 248.5 325.649 257.699C345.217 267.902 363.034 275.978 380.264 283.788C388.041 287.314 395.385 290.641 402.925 294.172C440.408 311.724 481.35 329.458 526.733 340.272C567.846 350.024 607.514 352.29 648.004 347.203C670.413 344.387 694.573 339.67 721.862 332.78C749.543 325.793 778.133 316.143 805.785 306.811C832.042 297.95 859.194 288.787 886.096 281.677C932.152 269.688 974.43 265.108 1015.32 260.682C1018.54 260.334 1021.74 259.987 1024.94 259.637C1042.58 257.707 1061.22 256.09 1083.6 254.543C1087.22 254.281 1090.9 254.1 1094.45 253.927L1096.73 253.814C1112.61 253.017 1129.45 253.726 1148.21 255.984C1156.19 256.943 1163.7 257.235 1170.96 257.513C1187.03 258.132 1200.91 258.668 1213.68 266.153L1213.74 266.182L1213.78 266.224C1240.09 290.91 1259.34 323.654 1277.96 355.321C1286.67 370.131 1295.67 385.445 1305.14 399.418C1335.08 443.59 1371.21 491.743 1421.13 503.991C1465.36 514.842 1504.43 488.156 1538.91 464.612L1539.51 465.487C1522.78 476.911 1503.82 489.859 1483.85 498.234C1461.33 507.673 1440.74 509.895 1420.88 505.023C1397.68 499.332 1375.69 485.677 1353.67 463.283C1334.32 443.609 1318.02 420.307 1304.27 400.012C1294.77 386.01 1285.76 370.682 1277.05 355.857C1258.47 324.273 1239.27 291.615 1213.1 267.038C1200.56 259.718 1186.82 259.189 1170.92 258.575C1163.64 258.294 1156.11 258.005 1148.09 257.039C1129.39 254.788 1112.6 254.081 1096.78 254.876L1094.51 254.989C1090.96 255.162 1087.28 255.343 1083.68 255.605C1061.31 257.151 1042.68 258.769 1025.05 260.697C1021.86 261.046 1018.65 261.394 1015.43 261.741C974.582 266.165 932.342 270.738 886.366 282.709C859.497 289.807 832.364 298.967 806.122 307.822C778.451 317.161 749.839 326.818 722.119 333.815C694.786 340.715 670.584 345.439 648.134 348.26C607.514 353.364 567.724 351.091 526.486 341.309C481.01 330.473 440.007 312.715 402.475 295.138C394.94 291.61 387.598 288.283 379.826 284.759C362.584 276.945 344.753 268.863 325.16 258.646C307.468 249.422 288.983 237.311 269.412 224.488C252.943 213.698 235.911 202.542 219.173 193.095C186.61 174.674 157.559 162.928 130.36 157.185C126.414 156.358 122.897 155.712 119.609 155.208C97.6427 151.837 76.8708 153.484 56.1011 160.241C22.417 171.205 -0.828342 199.574 -23.6163 230.169L-24.4651 229.536C-14.4105 216.035 -2.55295 200.55 10.9241 187.602C25.5191 173.583 40.1898 164.305 55.7732 159.231C69.693 154.7 83.6178 152.449 97.8924 152.449L97.8924 152.444Z" fill="#FFFFFF4D" fill-opacity="0.3"/>
<path d="M91.565 165.148C100.316 165.148 109.189 165.965 118.267 167.597C121.56 168.189 125.146 168.94 129.234 169.894C157.057 176.446 185.84 188.518 219.82 207.886C234.45 216.2 249.512 225.891 264.08 235.264C285.831 249.259 308.325 263.729 328.853 273.178C349.982 282.901 368.814 289.46 387.027 295.805C393.789 298.161 400.783 300.595 407.635 303.113C445.676 317.081 487.242 331.068 533.432 338.775C575.26 345.704 615.349 345.795 655.983 339.049C678.419 335.326 702.102 329.828 730.514 321.751C754.087 315.05 778.578 306.313 802.263 297.865C833.32 286.786 865.433 275.331 897.503 267.592C944.351 256.288 986.573 254.769 1027.4 253.299C1031.02 253.169 1034.63 253.039 1038.22 252.902C1059.15 252.107 1079.61 252.044 1096.86 252.085C1099.92 252.078 1103.05 252.141 1106.06 252.198C1107.37 252.222 1108.68 252.247 1109.98 252.269C1127.86 252.545 1146.16 254.909 1161.71 257.184C1172.32 258.738 1181.91 258.613 1191.19 258.493C1204.82 258.317 1216.58 258.165 1227.48 263.499L1227.55 263.533L1227.6 263.584C1252.58 287.036 1270.86 318.14 1288.54 348.22C1296.8 362.285 1305.35 376.833 1314.34 390.106C1342.77 432.064 1377.06 477.802 1424.47 489.434C1466.47 499.737 1503.58 474.382 1536.31 452.012L1536.88 452.854C1521 463.707 1503 476.009 1484.03 483.968C1462.65 492.937 1443.09 495.049 1424.23 490.425C1402.2 485.02 1381.32 472.05 1360.4 450.779C1342.03 432.086 1326.56 409.956 1313.5 390.679C1304.49 377.379 1295.93 362.819 1287.66 348.738C1270.03 318.742 1251.81 287.728 1226.96 264.382C1216.31 259.188 1204.67 259.337 1191.2 259.513C1181.89 259.633 1172.26 259.758 1161.57 258.194C1146.05 255.924 1127.78 253.565 1109.97 253.291C1108.66 253.272 1107.35 253.247 1106.04 253.22C1103.03 253.162 1099.92 253.108 1096.86 253.108C1079.62 253.066 1059.17 253.13 1038.25 253.923C1034.67 254.06 1031.06 254.189 1027.44 254.319C986.658 255.787 944.49 257.304 897.74 268.583C865.725 276.307 833.636 287.755 802.603 298.824C778.903 307.277 754.395 316.021 730.79 322.73C702.342 330.816 678.624 336.321 656.149 340.053C615.4 346.818 575.204 346.727 533.264 339.778C486.993 332.057 445.368 318.052 407.283 304.067C400.441 301.554 393.762 299.227 386.692 296.766C368.457 290.415 349.603 283.845 328.427 274.103C307.833 264.627 285.31 250.135 263.53 236.121C248.974 226.755 233.924 217.073 219.317 208.772C185.422 189.453 156.724 177.415 129.002 170.885C124.931 169.936 121.362 169.187 118.086 168.597C95.6332 164.563 74.4356 165.542 53.2818 171.587C18.3208 181.579 -5.0543 210.947 -27.874 242.744L-28.7008 242.149C-18.6291 228.115 -6.74717 212.04 6.84976 198.863C21.6796 184.489 36.7762 175.247 53.0028 170.609C65.7533 166.966 78.5209 165.148 91.5625 165.148L91.565 165.148Z" fill="#FFFFFF4D" fill-opacity="0.3"/>
<path d="M85.013 177.703C95.3831 177.703 105.925 178.816 116.767 181.04C120.082 181.72 123.617 182.55 127.893 183.646C155.813 190.883 185.064 203.579 219.952 223.605C232.901 231.016 246.358 239.564 259.373 247.832C283.763 263.326 308.985 279.35 332.064 288.654C354.436 297.673 373.992 302.48 392.905 307.129C399.584 308.771 405.891 310.322 412.349 312.054C451.134 322.462 493.458 332.721 540.137 337.277C582.682 341.373 623.189 339.283 663.967 330.891C686.097 326.338 709.991 319.928 739.169 310.718C759.779 304.213 780.331 296.444 802.089 288.221C836.828 275.09 872.75 261.511 908.907 253.508C957.238 242.809 999.927 244.338 1041.21 245.813C1044.66 245.935 1048.08 246.058 1051.49 246.173C1071.03 246.829 1089.81 248.177 1109.7 249.603L1110.12 249.632C1112.79 249.826 1115.51 250.063 1118.14 250.293C1119.84 250.442 1121.54 250.592 1123.24 250.729C1137.74 251.908 1152.54 254.469 1168.21 257.18C1170.53 257.582 1172.86 257.985 1175.21 258.387C1187.99 260.574 1199.6 259.669 1209.84 258.869C1221.63 257.949 1231.81 257.153 1241.27 260.85L1241.36 260.885L1241.43 260.948C1265.08 283.162 1282.38 312.627 1299.12 341.121C1306.94 354.445 1315.03 368.222 1323.54 380.796C1350.45 420.539 1382.91 463.863 1427.81 474.877C1467.58 484.635 1502.71 460.611 1533.71 439.413L1534.26 440.22C1519.22 450.504 1502.18 462.162 1484.21 469.705C1463.96 478.207 1445.44 480.209 1427.58 475.827C1406.72 470.708 1386.95 458.424 1367.14 438.273C1349.74 420.564 1335.09 399.601 1322.73 381.344C1314.2 368.746 1306.11 354.954 1298.27 341.615C1281.59 313.209 1264.34 283.837 1240.83 261.726C1231.6 258.152 1221.55 258.935 1209.92 259.842C1199.61 260.645 1187.94 261.557 1175.04 259.348C1172.69 258.947 1170.36 258.543 1168.05 258.142C1152.4 255.433 1137.62 252.877 1123.16 251.7C1121.45 251.56 1119.75 251.411 1118.06 251.264C1115.43 251.034 1112.71 250.795 1110.05 250.604L1109.63 250.574C1089.75 249.148 1070.97 247.8 1051.45 247.144C1048.05 247.029 1044.62 246.907 1041.17 246.784C999.951 245.312 957.323 243.785 909.115 254.457C873.026 262.446 837.138 276.012 802.432 289.131C780.659 297.362 760.097 305.135 739.46 311.648C710.25 320.867 686.325 327.285 664.161 331.845C623.284 340.259 582.682 342.354 540.037 338.248C493.287 333.685 450.916 323.414 412.09 312.996C405.643 311.266 399.339 309.718 392.665 308.076C373.718 303.42 354.128 298.605 331.692 289.559C308.53 280.221 283.269 264.175 258.842 248.656C245.837 240.394 232.389 231.852 219.458 224.451C184.649 204.469 155.473 191.803 127.641 184.59C123.382 183.496 119.861 182.672 116.561 181.994C93.5801 177.279 71.9591 177.588 50.4629 182.939C14.2128 191.959 -9.29197 222.325 -32.1336 255.323L-32.9385 254.765C-22.857 240.2 -10.9505 223.539 2.7687 210.119C17.8285 195.39 33.3532 186.188 50.2257 181.989C61.7212 179.129 73.2533 177.7 85.0032 177.7L85.013 177.703Z" fill="#FFFFFF4D" fill-opacity="0.3"/>
<path d="M78.2743 190.107C90.3031 190.107 102.567 191.565 115.266 194.486C118.571 195.247 122.157 196.174 126.551 197.403C154.525 205.295 184.246 218.618 220.083 239.329C231.679 246.008 243.808 253.647 255.54 261.033C282.257 277.856 309.884 295.255 335.28 304.138C358.76 312.354 378.923 315.288 398.42 318.126C404.83 319.058 410.885 319.941 417.069 321.003C456.896 327.844 500.184 334.369 546.849 335.786C590.105 337.036 631.031 332.767 671.958 322.736C694.044 317.323 717.443 310.213 747.83 299.685C766.102 293.356 784.381 286.028 803.737 278.272C841.54 263.12 880.633 247.452 920.313 239.422C942.644 234.903 965.852 232.965 991.265 233.498C1013.67 233.97 1034.84 236.241 1055.32 238.436C1058.49 238.776 1061.63 239.113 1064.76 239.441C1082.32 241.284 1099.94 243.813 1116.97 246.26C1119.1 246.566 1121.24 246.874 1123.37 247.18C1125.75 247.52 1128.17 247.899 1130.5 248.269C1132.46 248.577 1134.49 248.895 1136.49 249.191C1146.98 250.737 1157.63 253.032 1168.9 255.46C1175.31 256.844 1181.95 258.273 1188.71 259.592C1203.36 262.447 1216.17 260.487 1227.48 258.76C1237.82 257.18 1246.74 255.814 1255.07 258.21L1255.18 258.241L1255.26 258.32C1277.59 279.297 1293.91 307.121 1309.7 334.029C1317.08 346.61 1324.72 359.622 1332.75 371.493C1358.13 409.02 1388.77 449.93 1431.16 460.329C1468.7 469.538 1501.86 446.845 1531.11 426.824L1531.64 427.597C1517.45 437.313 1501.36 448.323 1484.4 455.45C1465.28 463.483 1447.79 465.376 1430.93 461.239C1411.23 456.407 1392.57 444.807 1373.88 425.777C1357.45 409.052 1343.63 389.258 1331.97 372.016C1323.92 360.121 1316.28 347.097 1308.89 334.502C1293.15 307.684 1276.89 279.953 1254.7 259.078C1246.6 256.783 1237.8 258.129 1227.62 259.685C1216.24 261.427 1203.34 263.399 1188.53 260.512C1181.77 259.193 1175.12 257.762 1168.7 256.377C1157.44 253.952 1146.81 251.66 1136.35 250.118C1134.35 249.822 1132.32 249.504 1130.36 249.196C1128.02 248.829 1125.61 248.45 1123.24 248.11C1121.1 247.804 1118.96 247.496 1116.83 247.19C1099.02 244.631 1082.2 242.216 1064.66 240.373C1061.53 240.046 1058.38 239.708 1055.21 239.368C1015.41 235.098 970.292 230.261 920.494 240.339C880.897 248.352 841.846 264.006 804.079 279.141C784.714 286.902 766.425 294.232 748.131 300.571C717.715 311.109 694.289 318.224 672.176 323.646C631.165 333.697 590.159 337.973 546.814 336.721C500.091 335.304 456.764 328.771 416.903 321.926C410.73 320.866 404.683 319.985 398.278 319.053C378.737 316.208 358.53 313.267 334.964 305.022C309.468 296.101 281.797 278.676 255.036 261.823C243.313 254.442 231.189 246.806 219.611 240.136C183.842 219.464 154.19 206.169 126.294 198.3C121.918 197.077 118.343 196.152 115.053 195.396C91.5092 189.982 69.4625 189.62 47.6581 194.293C10.1063 202.34 -13.5206 233.706 -36.3818 267.908L-37.1622 267.387C-26.6086 251.599 -15.1474 235.04 -1.29868 221.375C13.9911 206.289 29.9416 197.129 47.4624 193.375C57.6393 191.195 67.8675 190.104 78.2719 190.104L78.2743 190.107Z" fill="#FFFFFF4D" fill-opacity="0.3"/>
<path d="M71.4083 202.36C85.1055 202.36 99.1256 204.212 113.76 207.933C117.102 208.782 120.632 209.778 125.204 211.158C153.565 219.792 182.867 233.33 220.211 255.054C230.691 261.129 241.71 268.026 252.366 274.695C281.169 292.725 310.954 311.366 338.49 319.629C363.015 326.986 383.716 327.972 403.737 328.926C409.944 329.222 415.808 329.501 421.782 329.963C462.105 333.083 505.494 335.984 553.555 334.304C597.531 332.699 638.872 326.249 679.944 314.588C707.598 306.737 734.155 297.078 756.486 288.664C772.852 282.498 789.265 275.53 806.644 268.153C847.082 250.987 888.898 233.237 931.714 225.346C954.791 221.094 978.638 219.988 1004.62 221.967C1027.49 223.709 1048.89 227.529 1069.57 231.221C1072.41 231.727 1075.23 232.229 1078.03 232.723C1094.3 235.593 1110.57 239.111 1126.31 242.515C1129.74 243.256 1133.17 244 1136.62 244.739C1138.77 245.199 1140.94 245.693 1143.05 246.172C1145.24 246.669 1147.5 247.183 1149.74 247.662C1157.87 249.399 1166.1 251.606 1174.81 253.94C1183.63 256.302 1192.74 258.743 1202.21 260.806C1218.53 264.361 1232.29 261.119 1244.42 258.259C1253.57 256.103 1261.47 254.241 1268.86 255.577L1268.99 255.602L1269.09 255.692C1290.09 275.434 1305.44 301.619 1320.28 326.942C1327.23 338.781 1334.4 351.022 1341.95 362.193C1365.82 397.506 1394.62 436.002 1434.5 445.784C1469.82 454.447 1501 433.085 1528.52 414.236L1529.02 414.975C1515.67 424.121 1500.54 434.487 1484.58 441.196C1466.6 448.759 1450.15 450.542 1434.29 446.652C1415.75 442.106 1398.2 431.192 1380.62 413.282C1365.16 397.54 1352.17 378.914 1341.21 362.692C1333.64 351.499 1326.45 339.244 1319.51 327.394C1304.72 302.164 1289.42 276.078 1268.57 256.436C1261.4 255.178 1253.62 257.011 1244.63 259.13C1232.4 262.012 1218.54 265.278 1202.01 261.679C1192.53 259.614 1183.4 257.17 1174.58 254.804C1165.88 252.472 1157.66 250.27 1149.55 248.538C1147.31 248.059 1145.04 247.545 1142.85 247.046C1140.75 246.566 1138.57 246.072 1136.44 245.614C1132.99 244.876 1129.55 244.132 1126.12 243.39C1110.39 239.99 1094.13 236.471 1077.87 233.606C1075.07 233.112 1072.26 232.61 1069.42 232.104C1029.08 224.903 983.352 216.741 931.878 226.227C889.16 234.1 847.39 251.831 806.996 268.978C789.61 276.357 773.187 283.33 756.804 289.503C734.456 297.924 707.877 307.591 680.191 315.452C639.051 327.132 597.638 333.592 553.589 335.199C505.482 336.882 462.063 333.978 421.716 330.856C415.754 330.396 409.897 330.115 403.698 329.821C383.623 328.865 362.866 327.876 338.236 320.487C310.582 312.191 280.746 293.515 251.891 275.456C240.751 268.483 230.229 261.897 219.763 255.829C182.481 234.142 153.239 220.629 124.947 212.017C120.387 210.642 116.869 209.651 113.542 208.804C89.3988 202.668 66.9315 201.638 44.853 205.653C5.99257 212.721 -17.7593 245.091 -40.6327 280.501L-41.3862 280.014C-30.8277 263.671 -19.3519 246.549 -5.37095 232.635C10.1464 217.189 26.5224 208.075 44.6915 204.77C53.5082 203.167 62.391 202.362 71.4083 202.362L71.4083 202.36Z" fill="#FFFFFF4D" fill-opacity="0.3"/>
<path d="M982.025 208.075C1019.47 208.075 1053.23 216.502 1083.92 224.162C1086.39 224.779 1088.85 225.393 1091.29 225.997C1106.63 229.797 1121.93 234.223 1136.73 238.505C1141.02 239.748 1145.47 241.034 1149.87 242.292C1151.82 242.852 1153.81 243.442 1155.74 244.015C1158.1 244.719 1160.55 245.446 1162.98 246.126C1169.57 247.973 1176.23 250.139 1183.27 252.431C1193.64 255.803 1204.35 259.289 1215.7 262.007C1233.57 266.289 1248.07 261.574 1260.86 257.417C1269.01 254.768 1276.05 252.48 1282.65 252.942L1282.8 252.952L1282.91 253.057C1302.58 271.562 1316.95 296.107 1330.86 319.844C1337.36 330.94 1344.08 342.415 1351.15 352.884C1373.5 385.982 1400.47 422.061 1437.84 431.229C1470.93 439.344 1500.14 419.313 1525.92 401.639L1526.4 402.346C1513.89 410.921 1499.72 420.642 1484.77 426.937C1467.92 434.03 1452.5 435.706 1437.64 432.06C1420.27 427.801 1403.82 417.571 1387.36 400.785C1372.88 386.026 1360.71 368.569 1350.44 353.366C1343.36 342.875 1336.63 331.387 1330.12 320.28C1316.28 296.64 1301.96 272.195 1282.44 253.789C1276.05 253.385 1269.13 255.634 1261.13 258.235C1248.22 262.428 1233.6 267.18 1215.5 262.844C1204.12 260.118 1193.39 256.627 1183.01 253.248C1175.97 250.958 1169.33 248.795 1162.75 246.955C1160.32 246.273 1157.86 245.544 1155.49 244.839C1153.57 244.267 1151.58 243.677 1149.63 243.119C1145.23 241.861 1140.79 240.574 1136.49 239.332C1121.7 235.052 1106.41 230.629 1091.08 226.832C1088.64 226.227 1086.19 225.613 1083.71 224.997C1042.82 214.789 996.468 203.219 943.255 212.108C897.687 219.719 853.522 239.537 810.811 258.702C795.096 265.753 780.251 272.415 765.468 278.427C742.479 287.776 715.322 298.512 688.197 307.251C646.922 320.549 605.104 329.19 560.355 333.668C505.272 339.094 463.99 340.978 426.497 339.777C418.674 339.527 410.904 339.848 402.679 340.19C383.916 340.968 364.514 341.771 341.498 335.945C311.816 328.429 280.009 308.599 249.246 289.422C239.062 283.073 229.442 277.076 219.909 271.515C194.083 256.397 159.794 237.531 123.596 225.728C120.445 224.71 116.283 223.387 112.027 222.205C87.2597 215.325 64.3692 213.622 42.0436 217.006C1.86208 223.093 -22.0047 256.468 -44.8905 293.087L-45.6171 292.632C-35.0561 275.733 -23.5655 258.048 -9.45006 243.88C6.29482 228.074 23.0965 219.007 41.9138 216.157C64.3593 212.756 87.3673 214.464 112.254 221.378C116.523 222.564 120.699 223.888 123.857 224.911C160.137 236.74 194.477 255.634 220.339 270.774C229.885 276.342 239.509 282.341 249.698 288.693C280.405 307.836 312.156 327.629 341.706 335.114C364.602 340.91 383.94 340.11 402.64 339.334C410.882 338.992 418.666 338.671 426.522 338.921C463.975 340.12 505.226 338.238 560.269 332.814C604.957 328.341 646.716 319.712 687.933 306.434C715.031 297.704 742.171 286.975 765.145 277.632C779.914 271.625 794.751 264.968 810.461 257.919C853.221 238.732 897.435 218.892 943.113 211.261C956.512 209.022 969.48 208.075 982.027 208.075L982.025 208.075Z" fill="#FFFFFF4D" fill-opacity="0.3"/>
<path d="M986.482 194.798C1028.19 194.798 1065.02 206.605 1098.3 217.275C1100.39 217.945 1102.47 218.613 1104.54 219.274C1119.21 223.954 1133.8 229.247 1147.91 234.363C1152.88 236.163 1158.01 238.025 1163.1 239.843C1164.9 240.487 1166.73 241.159 1168.5 241.81C1171.02 242.735 1173.63 243.694 1176.22 244.592C1181.72 246.503 1187.27 248.644 1193.15 250.909C1204.59 255.323 1216.43 259.889 1229.19 263.211C1248.5 268.244 1264.26 261.616 1276.92 256.295C1284.22 253.229 1290.52 250.582 1296.43 250.312L1296.6 250.305L1296.73 250.423C1315.07 267.691 1328.47 290.597 1341.43 312.746C1347.49 323.101 1353.75 333.807 1360.34 343.574C1381.17 374.459 1406.32 408.122 1441.17 416.674C1472.03 424.244 1499.27 405.544 1523.31 389.043L1523.77 389.716C1512.11 397.722 1498.89 406.796 1484.94 412.678C1469.22 419.301 1454.84 420.87 1440.98 417.469C1424.78 413.495 1409.44 403.948 1394.08 388.285C1380.58 374.508 1369.24 358.22 1359.67 344.034C1353.06 334.245 1346.79 323.526 1340.73 313.162C1327.83 291.113 1314.49 268.313 1296.29 251.139C1290.57 251.445 1284.39 254.044 1277.23 257.051C1264.45 262.421 1248.55 269.105 1228.97 264.004C1216.17 260.669 1204.32 256.096 1192.85 251.675C1186.98 249.412 1181.44 247.274 1175.95 245.368C1173.34 244.465 1170.74 243.508 1168.22 242.581C1166.45 241.93 1164.62 241.26 1162.83 240.619C1157.73 238.798 1152.6 236.936 1147.63 235.136C1133.53 230.02 1118.95 224.732 1104.29 220.057C1102.22 219.396 1100.14 218.731 1098.04 218.058C1056.6 204.77 1009.62 189.708 954.625 197.99C906.407 205.252 860.088 227.169 815.295 248.367C801.018 255.123 787.534 261.503 774.123 267.353C745.378 279.888 721.127 290.076 696.194 299.052C654.777 313.962 612.552 324.784 567.109 332.139C524.246 339.009 484.762 343.122 446.579 347.1C441.449 347.636 436.358 348.164 431.304 348.698C425.657 349.292 420.082 350.083 414.179 350.919C393.145 353.899 371.395 356.98 344.746 351.404C313.139 344.79 279.509 323.876 246.987 303.652C237.628 297.831 228.786 292.334 220.045 287.203C191.792 270.566 158.077 251.881 122.235 239.442C118.805 238.26 114.729 236.883 110.505 235.61C85.0844 227.962 61.7706 225.591 39.2298 228.361C-2.27769 233.46 -26.2618 267.845 -49.1549 305.678L-49.8522 305.255C-39.2912 287.803 -27.7909 269.555 -13.536 255.127C2.43642 238.962 19.6637 229.941 39.1294 227.549C61.7853 224.764 85.2091 227.145 110.739 234.827C114.979 236.102 119.064 237.484 122.501 238.669C158.412 251.134 192.172 269.842 220.459 286.499C229.209 291.634 238.056 297.134 247.42 302.957C279.884 323.145 313.453 344.022 344.915 350.604C371.422 356.15 393.101 353.08 414.067 350.109C419.977 349.273 425.557 348.482 431.221 347.885C436.275 347.352 441.366 346.821 446.496 346.288C484.669 342.309 524.141 338.197 566.979 331.331C612.371 323.986 654.549 313.175 695.917 298.284C720.829 289.317 745.067 279.134 773.797 266.605C787.196 260.76 800.675 254.381 814.948 247.628C859.794 226.406 906.168 204.462 954.505 197.183C965.475 195.532 976.129 194.805 986.477 194.805L986.482 194.798Z" fill="#FFFFFF4D" fill-opacity="0.3"/>
<path d="M992.512 181.313C1038.01 181.313 1077.34 196.712 1112.71 210.56C1114.41 211.228 1116.11 211.891 1117.8 212.552C1131.94 218.076 1145.98 224.198 1159.56 230.121C1165.04 232.514 1170.71 234.988 1176.34 237.4C1178 238.11 1179.68 238.846 1181.31 239.558C1183.96 240.72 1186.71 241.924 1189.45 243.059C1194.16 245.007 1198.89 247.128 1203.91 249.377C1216.14 254.857 1228.79 260.521 1242.67 264.416C1263.36 270.222 1279.63 261.742 1292.71 254.926C1299.25 251.515 1304.91 248.567 1310.23 247.688L1310.42 247.657L1310.56 247.789C1327.57 263.819 1340 285.086 1352.02 305.652C1357.63 315.263 1363.44 325.201 1369.55 334.269C1388.86 362.936 1412.18 394.187 1444.52 402.12C1473.15 409.144 1498.42 391.773 1520.72 376.447L1521.15 377.085C1510.33 384.523 1498.07 392.952 1485.13 398.415C1470.54 404.571 1457.2 406.029 1444.33 402.871C1429.3 399.184 1415.07 390.322 1400.82 375.779C1388.29 362.985 1377.78 347.865 1368.9 334.699C1362.78 325.61 1356.97 315.662 1351.35 306.041C1339.39 285.58 1327.03 264.421 1310.17 248.484C1305.02 249.382 1299.48 252.271 1293.07 255.611C1279.87 262.488 1263.45 271.047 1242.47 265.16C1228.53 261.25 1215.86 255.572 1203.6 250.081C1198.59 247.838 1193.86 245.716 1189.16 243.774C1186.41 242.636 1183.66 241.43 1181 240.265C1179.38 239.553 1177.69 238.817 1176.04 238.11C1170.41 235.695 1164.74 233.221 1159.25 230.828C1145.68 224.91 1131.65 218.788 1117.52 213.271C1115.83 212.613 1114.13 211.948 1112.43 211.28C1070.43 194.836 1022.83 176.199 966.013 183.862C915.295 190.701 867.011 214.742 820.315 237.99C807.3 244.469 795.01 250.588 782.792 256.269C757.781 267.9 731.11 280.153 704.203 290.843C662.637 307.358 620.006 320.359 573.873 330.596C539.151 338.247 506.522 344.349 474.966 350.25C461.516 352.765 448.81 355.141 436.101 357.605C430.575 358.677 425.109 359.951 419.321 361.299C397.842 366.308 375.634 371.485 348.012 366.851C333.048 364.341 316.197 358.217 296.502 348.129C279.13 339.233 261.812 328.477 245.062 318.074C236.419 312.706 228.253 307.634 220.197 302.88C191.063 285.626 156.484 266.224 120.889 253.142C117.379 251.86 113.22 250.367 108.995 249.002C82.902 240.564 59.1651 237.522 36.426 239.702C-6.41466 243.81 -30.5139 279.204 -53.4119 318.258L-54.0797 317.866C-43.5237 299.859 -32.011 281.051 -17.6117 266.359C-1.41429 249.832 16.2362 240.86 36.3527 238.932C41.1084 238.477 45.9081 238.247 50.7617 238.247C69.2268 238.247 88.4896 241.557 109.232 248.266C113.467 249.636 117.636 251.133 121.153 252.415C156.807 265.52 191.425 284.941 220.588 302.212C228.654 306.971 236.82 312.045 245.468 317.416C279.573 338.597 314.837 360.499 348.137 366.087C375.607 370.697 397.74 365.537 419.143 360.546C424.938 359.195 430.411 357.918 435.952 356.844C448.663 354.38 461.369 352.004 474.822 349.489C506.37 343.59 538.992 337.488 573.702 329.84C619.794 319.613 662.385 306.624 703.912 290.123C730.8 279.441 757.458 267.196 782.46 255.567C794.667 249.89 806.953 243.771 819.962 237.295C842.912 225.869 866.641 214.054 891.037 204.216C918.668 193.071 943.159 186.162 965.903 183.094C975.003 181.868 983.866 181.31 992.507 181.31L992.512 181.313Z" fill="#FFFFFF4D" fill-opacity="0.3"/>
<path d="M999.407 167.691C1018.54 167.691 1038.04 170.627 1058.49 176.553C1083.3 183.746 1105.58 194.047 1127.12 204.009C1128.44 204.619 1129.74 205.223 1131.05 205.825C1144.79 212.171 1158.4 219.108 1171.55 225.816C1177.44 228.819 1183.53 231.921 1189.58 234.95C1191.1 235.711 1192.65 236.499 1194.15 237.26C1196.93 238.674 1199.81 240.137 1202.69 241.524C1206.78 243.491 1210.89 245.595 1215.25 247.824C1228.08 254.389 1241.35 261.176 1256.17 265.621C1278.17 272.222 1294.86 261.753 1308.28 253.342C1314.16 249.649 1319.24 246.461 1324.03 245.072L1324.23 245.013L1324.38 245.157C1340.07 259.952 1351.52 279.577 1362.6 298.558C1367.77 307.428 1373.12 316.598 1378.75 324.963C1396.55 351.416 1418.03 380.253 1447.86 387.568C1474.26 394.047 1497.56 378.007 1518.12 363.855L1518.53 364.459C1508.56 371.327 1497.25 379.11 1485.31 384.157C1471.86 389.844 1459.55 391.192 1447.68 388.28C1433.82 384.879 1420.7 376.702 1407.56 363.28C1396 351.47 1386.31 337.519 1378.14 325.369C1372.5 316.982 1367.14 307.802 1361.96 298.923C1350.95 280.049 1339.57 260.535 1324.03 245.83C1319.4 247.22 1314.42 250.347 1308.66 253.956C1295.13 262.446 1278.28 273.015 1255.96 266.316C1241.08 261.853 1227.78 255.049 1214.91 248.47C1210.56 246.244 1206.46 244.142 1202.37 242.18C1199.48 240.79 1196.6 239.325 1193.81 237.908C1192.32 237.147 1190.77 236.362 1189.25 235.601C1183.2 232.572 1177.11 229.467 1171.22 226.465C1158.07 219.759 1144.47 212.825 1130.74 206.485C1129.44 205.884 1128.13 205.279 1126.81 204.67C1084.28 184.999 1036.06 162.707 977.397 169.732C924.294 176.093 871.93 203.454 825.732 227.598C813.843 233.81 802.614 239.679 791.459 245.184C763.468 259.001 738.184 271.356 712.209 282.633C670.486 300.748 627.447 315.932 580.634 329.054C555.326 336.107 531.007 342.486 507.487 348.654C484.286 354.739 462.371 360.486 440.895 366.507C435.474 368.026 430.101 369.761 424.411 371.596C413.674 375.061 402.572 378.643 390.541 380.913C376.903 383.487 364.059 383.94 351.272 382.293C335.522 380.265 317.801 374.226 297.095 363.83C278.87 354.68 260.835 343.484 243.392 332.655C235.378 327.681 227.809 322.981 220.348 318.552C188.748 299.735 154.665 280.446 119.545 266.84C115.956 265.46 111.717 263.85 107.49 262.389C80.7018 253.138 56.539 249.427 33.6288 251.039C-10.5502 254.149 -34.7643 290.558 -57.6622 330.832L-58.3007 330.47C-47.7495 311.912 -36.2295 292.539 -21.6835 277.581C-5.26098 260.691 12.8151 251.771 33.5774 250.308C37.0537 250.063 40.5618 249.941 44.1017 249.941C63.9857 249.941 84.9096 253.816 107.732 261.697C111.971 263.16 116.218 264.772 119.812 266.155C154.983 279.78 189.098 299.087 220.724 317.921C228.191 322.355 235.765 327.055 243.781 332.031C277.771 353.134 316.297 377.05 351.368 381.564C379.789 385.224 402.359 377.938 424.186 370.896C429.881 369.059 435.261 367.322 440.697 365.798C462.181 359.774 484.098 354.027 507.301 347.939C530.818 341.771 555.135 335.395 580.435 328.342C627.215 315.23 670.224 300.056 711.918 281.955C737.876 270.686 763.152 258.335 791.134 244.524C802.282 239.021 813.508 233.154 825.392 226.944C849.142 214.532 873.703 201.7 899.109 191.101C927.925 179.08 953.506 171.85 977.312 169C984.643 168.122 992 167.681 999.41 167.681L999.407 167.691Z" fill="#FFFFFF4D" fill-opacity="0.3"/>
<path d="M1007.15 153.958C1028.23 153.958 1049.6 157.74 1072.01 165.396C1097.31 174.042 1120.8 186.572 1141.53 197.628L1144.29 199.101C1157.71 206.253 1170.97 213.992 1183.79 221.476C1190 225.099 1196.42 228.848 1202.81 232.503C1204.2 233.298 1205.59 234.103 1206.98 234.908C1209.89 236.591 1212.9 238.334 1215.92 239.99C1219.52 241.967 1223.14 244.051 1226.97 246.258C1239.66 253.564 1254.03 261.846 1269.66 266.822C1292.94 274.241 1309.97 261.662 1323.66 251.553C1328.95 247.643 1333.53 244.264 1337.84 242.454L1338.05 242.366L1338.21 242.52C1352.57 256.077 1363.05 274.065 1373.18 291.46C1377.91 299.586 1382.8 307.988 1387.95 315.653C1404.23 339.892 1423.88 366.314 1451.2 373.013C1475.38 378.943 1496.7 364.234 1515.52 351.257L1515.91 351.827C1506.78 358.125 1496.43 365.262 1485.49 369.896C1473.18 375.112 1461.91 376.352 1451.03 373.686C1438.34 370.571 1426.32 363.079 1414.3 350.78C1403.71 339.953 1394.85 327.17 1387.38 316.04C1382.21 308.355 1377.31 299.943 1372.58 291.808C1362.51 274.522 1352.1 256.649 1337.9 243.18C1333.72 244.981 1329.24 248.289 1324.07 252.108C1310.26 262.311 1293.07 275.009 1269.45 267.481C1253.75 262.48 1239.34 254.181 1226.63 246.855C1222.8 244.651 1219.18 242.566 1215.59 240.594C1212.56 238.933 1209.55 237.191 1206.63 235.505C1205.24 234.7 1203.85 233.898 1202.46 233.103C1196.07 229.447 1189.65 225.699 1183.44 222.073C1170.62 214.591 1157.38 206.857 1143.97 199.71L1141.21 198.238C1098.14 175.268 1049.33 149.236 988.779 155.614C933.379 161.449 879.236 191.076 831.468 217.216C820.594 223.167 810.322 228.789 800.118 234.111L799.998 234.174C773.905 247.787 746.922 261.863 720.207 274.434C678.309 294.149 634.861 311.513 587.384 327.519C571.906 332.716 556.69 337.732 541.975 342.583C508.191 353.723 476.28 364.244 445.676 375.42C440.346 377.368 435.054 379.538 429.449 381.838C418.529 386.32 407.234 390.954 394.922 394.154C380.95 397.788 367.738 398.962 354.53 397.751C317.577 394.36 277.388 369.404 241.933 347.386C234.477 342.757 227.436 338.383 220.498 334.245C190.048 316.015 154.522 295.331 118.201 280.558C114.345 278.999 110.199 277.346 105.981 275.799C78.4843 265.714 53.9008 261.33 30.8267 262.399C-14.6977 264.508 -39.022 301.932 -61.9224 343.43L-62.529 343.095C-51.9852 323.984 -40.4606 304.053 -25.7628 288.82C-9.11766 271.566 9.38173 262.7 30.7924 261.706C53.9618 260.635 78.631 265.031 106.216 275.148C110.441 276.697 114.595 278.356 118.458 279.917C154.823 294.707 190.379 315.408 220.848 333.651C227.788 337.793 234.834 342.167 242.293 346.799C277.684 368.777 317.797 393.687 354.588 397.063C383.957 399.76 407.983 389.9 429.183 381.202C434.792 378.899 440.089 376.727 445.434 374.774C476.05 363.593 507.966 353.07 541.755 341.93C556.47 337.078 571.684 332.063 587.159 326.869C634.612 310.872 678.035 293.516 719.909 273.813C746.609 261.249 773.585 247.176 799.673 233.565L799.793 233.504C809.991 228.182 820.259 222.565 831.131 216.614C855.621 203.212 880.946 189.354 907.31 177.994C937.254 165.09 963.875 157.547 988.701 154.931C994.834 154.286 1000.98 153.96 1007.15 153.96L1007.15 153.958Z" fill="#FFFFFF4D" fill-opacity="0.3"/>
<path d="M1015.44 140.145C1038.31 140.145 1061.38 144.823 1085.54 154.316C1111.32 164.45 1135.02 178.773 1155.94 191.412L1157.54 192.379C1171.16 200.612 1184.6 209.451 1197.59 217.998C1203.61 221.959 1209.84 226.054 1216.04 230.057C1217.48 230.982 1218.92 231.917 1220.36 232.851C1223.22 234.706 1226.18 236.624 1229.15 238.454C1232.35 240.431 1235.57 242.498 1238.98 244.683C1252.03 253.049 1266.81 262.527 1283.15 268.025C1307.69 276.285 1325 261.48 1338.9 249.584C1343.66 245.513 1347.77 241.997 1351.66 239.839L1351.86 239.724L1352.04 239.888C1365.07 252.209 1374.57 268.556 1383.76 284.366C1388.05 291.75 1392.48 299.384 1397.15 306.347C1411.92 328.372 1429.74 352.378 1454.54 358.461C1476.49 363.843 1495.85 350.467 1512.92 338.662L1513.29 339.198C1505.01 344.926 1495.61 351.419 1485.68 355.635C1474.5 360.381 1464.26 361.512 1454.39 359.092C1442.86 356.264 1431.95 349.457 1421.04 338.278C1411.42 328.433 1403.39 316.821 1396.61 306.706C1391.93 299.724 1387.49 292.08 1383.19 284.689C1374.07 268.991 1364.64 252.76 1351.76 240.522C1348 242.655 1343.98 246.1 1339.33 250.073C1332.43 255.975 1324.61 262.664 1315.35 266.884C1304.6 271.785 1294 272.36 1282.94 268.636C1266.53 263.114 1251.71 253.609 1238.63 245.224C1235.23 243.039 1232.01 240.974 1228.81 239C1225.83 237.165 1222.87 235.244 1220.01 233.387C1218.56 232.45 1217.13 231.518 1215.68 230.593C1209.49 226.588 1203.26 222.492 1197.23 218.531C1184.25 209.987 1170.82 201.152 1157.2 192.924L1155.6 191.958C1112.02 165.619 1062.62 135.765 1000.16 141.483C942.534 146.756 886.715 178.672 837.467 206.831C827.516 212.522 818.117 217.895 808.777 223.028L803.407 225.979C778.804 239.501 753.361 253.484 728.206 266.224C686.106 287.546 642.25 307.093 594.13 325.976C588.034 328.359 581.991 330.718 575.998 333.054C531.66 350.352 489.78 366.691 450.448 384.322C445.193 386.678 439.972 389.267 434.446 392.009C423.344 397.517 411.866 403.21 399.275 407.352C384.978 412.055 371.403 413.966 357.777 413.193C319.144 410.995 277.436 385.075 240.638 362.206C233.68 357.883 227.109 353.8 220.641 349.919C186.26 329.23 152.451 309.407 116.852 294.258C112.928 292.596 108.71 290.835 104.47 289.191C76.2492 278.247 51.2473 273.192 28.0241 273.737C-18.8533 274.838 -43.2876 313.28 -66.1831 356.007L-66.7579 355.698C-56.2214 336.037 -44.6943 315.546 -29.84 300.034C-12.9698 282.418 5.95289 273.6 28.0093 273.084C29.142 273.057 30.2819 273.045 31.4219 273.045C53.7645 273.045 77.7781 278.141 104.705 288.581C108.952 290.228 113.175 291.994 117.106 293.658C152.747 308.823 186.575 328.66 220.976 349.361C227.449 353.244 234.023 357.33 240.98 361.654C277.712 384.483 319.347 410.357 357.814 412.544C388.117 414.264 412.578 402.134 434.155 391.429C439.688 388.684 444.914 386.091 450.181 383.732C489.528 366.094 531.415 349.753 575.76 332.453C581.751 330.114 587.796 327.757 593.89 325.374C641.988 306.498 685.827 286.962 727.907 265.649C753.053 252.911 778.488 238.934 803.089 225.413L808.459 222.463C817.794 217.335 827.19 211.962 837.14 206.273C862.32 191.874 888.359 176.987 915.639 164.856C946.661 151.059 974.288 143.205 1000.1 140.842C1005.2 140.375 1010.32 140.14 1015.44 140.14L1015.44 140.145Z" fill="#FFFFFF4D" fill-opacity="0.3"/>
<path d="M1023.89 126.292C1048.61 126.292 1073.39 131.944 1099.28 143.448C1125.6 155.141 1149.53 171.306 1170.65 185.57L1170.78 185.653C1184.12 194.662 1197.25 204.27 1209.94 213.56C1216.25 218.174 1222.77 222.945 1229.26 227.606C1230.57 228.543 1231.89 229.488 1233.2 230.435C1236.19 232.578 1239.27 234.794 1242.37 236.918C1245.26 238.893 1248.14 240.936 1251.21 243.101C1264.54 252.533 1279.65 263.22 1296.63 269.229C1322.42 278.353 1340.69 260.487 1354.03 247.444C1358.12 243.441 1361.99 239.658 1365.48 237.226L1365.69 237.085L1365.87 237.256C1377.57 248.339 1386.1 263.049 1394.34 277.271C1398.19 283.911 1402.17 290.777 1406.36 297.043C1419.6 316.853 1435.59 338.445 1457.89 343.911C1477.61 348.75 1494.99 336.701 1510.33 326.072L1510.67 326.574C1503.23 331.731 1494.79 337.579 1485.87 341.381C1475.82 345.66 1466.61 346.683 1457.74 344.505C1435.24 338.986 1419.16 317.289 1405.85 297.383C1401.65 291.102 1397.66 284.227 1393.81 277.579C1385.63 263.467 1377.18 248.878 1365.63 237.872C1362.23 240.28 1358.45 243.974 1354.46 247.882C1347.51 254.676 1339.63 262.376 1330.12 267.333C1319.06 273.104 1308.03 273.912 1296.43 269.806C1279.37 263.77 1264.22 253.054 1250.85 243.6C1247.79 241.437 1244.91 239.394 1242.03 237.422C1238.92 235.296 1235.83 233.077 1232.85 230.929C1231.53 229.984 1230.22 229.04 1228.9 228.103C1222.41 223.439 1215.89 218.669 1209.58 214.052C1196.89 204.764 1183.76 195.158 1170.43 186.157L1170.31 186.074C1128.34 157.729 1076.11 122.451 1011.54 127.374C951.648 132.179 894.143 166.432 843.406 196.656C834.401 202.021 825.895 207.086 817.435 211.965C813.834 214.042 810.235 216.119 806.642 218.194C783.587 231.509 759.747 245.276 736.204 258.035C693.862 280.983 649.597 302.709 600.878 324.453C544.971 349.33 498.747 370.193 455.224 393.245C450.035 395.993 444.878 398.985 439.416 402.154C428.14 408.694 416.483 415.456 403.618 420.55C389.003 426.337 375.074 428.986 361.032 428.656C320.757 427.702 277.586 400.837 239.496 377.137C232.989 373.087 226.841 369.263 220.791 365.615C182.374 342.384 150.226 323.388 115.51 307.979C110.883 305.936 106.979 304.241 102.967 302.601C75.4258 291.356 49.9959 285.631 25.224 285.095C-26.3772 283.987 -50.8016 330.904 -70.4362 368.605L-70.9794 368.321C-59.8484 346.945 -48.6367 326.461 -33.9071 310.827C-16.7483 292.612 2.5879 283.997 25.2363 284.481C50.084 285.017 75.5849 290.757 103.197 302.031C107.216 303.673 111.126 305.371 115.757 307.416C150.507 322.84 182.672 341.843 221.107 365.087C227.159 368.737 233.309 372.564 239.817 376.613C277.84 400.272 320.936 427.09 361.044 428.039C361.817 428.059 362.588 428.066 363.351 428.066C393.514 428.066 417.702 414.035 439.105 401.62C444.573 398.45 449.737 395.455 454.933 392.7C498.473 369.64 544.707 348.772 600.624 323.89C649.328 302.154 693.581 280.435 735.908 257.495C759.444 244.738 783.281 230.973 806.334 217.66C809.927 215.586 813.523 213.508 817.127 211.431C825.584 206.555 834.088 201.488 843.09 196.125C893.884 165.869 951.454 131.577 1011.49 126.759C1015.62 126.444 1019.76 126.287 1023.89 126.287L1023.89 126.292Z" fill="#FFFFFF4D" fill-opacity="0.3"/>
<path d="M1032.89 112.366C1094.86 112.366 1144.07 149.108 1184.01 178.928C1197.11 188.702 1209.97 199.074 1222.42 209.103C1228.96 214.378 1235.73 219.834 1242.48 225.16C1243.66 226.08 1244.83 227.007 1246 227.935C1249.12 230.396 1252.34 232.94 1255.59 235.385C1258.2 237.349 1260.82 239.373 1263.58 241.514C1277.16 252.017 1292.55 263.923 1310.12 270.436C1337.13 280.443 1355.58 260.04 1369.05 245.144C1372.72 241.09 1376.18 237.261 1379.31 234.616L1379.51 234.453L1379.69 234.629C1390.07 244.477 1397.62 257.544 1404.92 270.184C1408.33 276.08 1411.85 282.18 1415.56 287.743C1427.28 305.337 1441.45 324.517 1461.22 329.366C1478.72 333.658 1494.13 322.941 1507.73 313.485L1508.05 313.955C1501.45 318.544 1493.97 323.746 1486.05 327.13C1477.13 330.939 1468.97 331.852 1461.09 329.919C1441.11 325.021 1426.87 305.744 1415.08 288.059C1411.37 282.481 1407.84 276.374 1404.43 270.47C1397.19 257.943 1389.71 244.99 1379.49 235.221C1376.43 237.836 1373.05 241.575 1369.47 245.531C1355.89 260.549 1337.29 281.118 1309.92 270.976C1292.26 264.434 1276.84 252.499 1263.24 241.971C1260.47 239.83 1257.86 237.809 1255.25 235.847C1252 233.4 1248.77 230.851 1245.65 228.39C1244.48 227.462 1243.31 226.538 1242.13 225.615C1235.38 220.286 1228.61 214.83 1222.06 209.555C1209.62 199.529 1196.76 189.162 1183.67 179.393C1141.68 148.044 1089.43 109.029 1022.93 113.262C960.909 117.436 901.888 154.033 849.812 186.322C841.59 191.42 833.825 196.236 826.095 200.901C820.551 204.246 815.02 207.595 809.499 210.938C788.12 223.88 766.012 237.261 744.203 249.847C701.563 274.453 656.887 298.359 607.625 322.929C559.094 347.077 507.72 373.085 459.994 402.167C454.864 405.293 449.758 408.675 444.354 412.254C432.91 419.834 421.075 427.673 407.945 433.724C393.022 440.604 378.74 444.002 364.285 444.115C364.047 444.115 363.805 444.117 363.565 444.117C345.064 444.117 324.333 438.617 300.214 427.313C278.863 417.307 258.33 404.51 238.475 392.135C232.377 388.333 226.615 384.744 220.945 381.306L219.619 380.501C185.516 359.78 150.252 338.355 114.171 321.698C110.369 319.951 105.936 317.928 101.464 316.012C71.3594 303.118 46.2474 296.904 22.4369 296.453C21.8767 296.444 21.3165 296.439 20.7612 296.439C-27.7184 296.439 -52.0646 336.522 -74.691 381.206L-75.1999 380.949C-64.6879 360.192 -53.1556 338.58 -37.9808 322.501C-21.0814 304.593 -1.84325 295.871 20.7735 295.871C21.3312 295.871 21.8866 295.876 22.4492 295.886C46.3356 296.336 71.516 302.565 101.692 315.488C106.171 317.407 110.606 319.432 114.413 321.182C150.524 337.853 185.803 359.286 219.92 380.017L221.246 380.822C226.919 384.259 232.683 387.851 238.784 391.653C277.828 415.988 322.056 443.549 363.563 443.549C363.805 443.549 364.045 443.549 364.287 443.547C396.459 443.297 421.74 426.555 444.046 411.782C449.455 408.2 454.565 404.814 459.705 401.682C507.451 372.589 558.837 346.573 607.378 322.42C656.63 297.855 701.293 273.954 743.926 249.353C765.728 236.772 787.834 223.391 809.212 210.451C814.736 207.106 820.268 203.759 825.811 200.414C833.539 195.751 841.304 190.936 849.524 185.84C901.653 153.517 960.74 116.88 1022.9 112.697C1026.27 112.481 1029.61 112.378 1032.9 112.378L1032.89 112.366Z" fill="#FFFFFF4D" fill-opacity="0.3"/>
<path d="M1042.2 98.3994C1069.64 98.3994 1096.83 105.808 1125.03 120.945C1152.77 135.833 1177.43 155.999 1197.24 172.203C1210.13 182.738 1222.77 193.868 1235 204.631C1241.75 210.572 1248.73 216.715 1255.7 222.71C1256.7 223.571 1257.71 224.435 1258.72 225.301C1262 228.122 1265.39 231.038 1268.81 233.847C1271.19 235.799 1273.57 237.798 1276.08 239.917C1289.86 251.502 1305.47 264.631 1323.61 271.641C1351.83 282.553 1370.42 259.51 1383.98 242.684C1387.26 238.628 1390.34 234.799 1393.15 231.997L1393.33 231.814L1393.52 231.992C1402.57 240.602 1409.15 252.033 1415.5 263.085C1418.47 268.24 1421.53 273.571 1424.76 278.433C1434.97 293.812 1447.3 310.574 1464.57 314.81C1479.84 318.555 1493.27 309.168 1505.13 300.888L1505.43 301.324C1493.48 309.669 1479.94 319.125 1464.44 315.326C1446.99 311.047 1434.58 294.191 1424.32 278.729C1421.08 273.852 1418.01 268.514 1415.04 263.351C1408.75 252.407 1402.24 241.094 1393.34 232.558C1390.61 235.32 1387.59 239.061 1384.4 243.017C1370.73 259.97 1352.01 283.189 1323.42 272.135C1305.21 265.093 1289.56 251.933 1275.75 240.323C1273.23 238.207 1270.85 236.208 1268.48 234.258C1265.05 231.444 1261.66 228.528 1258.38 225.704C1257.37 224.838 1256.36 223.975 1255.36 223.113C1248.39 217.117 1241.41 210.973 1234.66 205.03C1222.43 194.27 1209.79 183.142 1196.92 172.614C1157.17 140.115 1102.75 95.6004 1034.32 99.1334C970.206 102.649 909.73 141.615 856.372 175.993C848.881 180.818 841.806 185.378 834.756 189.819C827.072 194.661 819.29 199.589 811.762 204.352C792.253 216.706 772.08 229.48 752.201 241.639C709.142 267.978 664.056 294.064 614.368 321.389C565.042 348.458 512.778 378.061 464.76 411.074C459.679 414.567 454.62 418.325 449.265 422.304C426.548 439.181 400.8 458.309 367.534 459.559C348.154 460.288 326.433 454.962 301.125 443.279C279.042 433.084 257.003 419.324 237.557 407.181C231.83 403.606 226.421 400.227 221.095 396.986C218.754 395.557 216.415 394.128 214.076 392.699C181.312 372.678 147.43 351.977 112.829 335.403C108.98 333.566 104.494 331.437 99.9607 329.406C69.0974 315.583 43.5745 308.715 19.6416 307.795C18.5261 307.751 17.418 307.731 16.3268 307.731C-36.5563 307.731 -61.0002 357.354 -78.9493 393.788L-79.4238 393.553C-68.9265 372.247 -57.3968 350.078 -42.0532 333.707C-24.5128 314.993 -4.32543 306.341 19.6613 307.264C43.6649 308.186 69.249 315.066 100.176 328.919C104.714 330.953 109.203 333.084 113.056 334.921C147.682 351.507 181.574 372.216 214.35 392.244C216.689 393.673 219.028 395.102 221.369 396.531C226.697 399.775 232.109 403.154 237.835 406.728C278.32 432.005 324.209 460.658 367.512 459.026C400.614 457.78 426.291 438.704 448.947 421.873C454.307 417.892 459.368 414.132 464.457 410.633C512.494 377.608 564.772 347.999 614.111 320.921C663.792 293.602 708.868 267.52 751.922 241.184C771.799 229.027 791.969 216.253 811.479 203.902C819.006 199.136 826.788 194.208 834.472 189.369C841.52 184.928 848.595 180.37 856.083 175.545C909.497 141.13 970.037 102.126 1034.29 98.6024C1036.93 98.4654 1039.57 98.397 1042.2 98.397L1042.2 98.3994Z" fill="#FFFFFF4D" fill-opacity="0.3"/>
<path d="M1051.68 84.402C1080.39 84.402 1108.65 92.6986 1137.86 109.674C1164.13 124.936 1187.2 144.776 1210.48 165.472C1223.18 176.764 1235.63 188.65 1247.67 200.144C1254.6 206.755 1261.76 213.588 1268.91 220.256C1269.73 221.012 1270.54 221.773 1271.36 222.531C1274.83 225.756 1278.41 229.088 1282.02 232.305C1284.2 234.246 1286.38 236.223 1288.68 238.314C1302.63 250.981 1318.43 265.338 1337.09 272.839C1350.12 278.08 1362.16 276.465 1373.91 267.904C1384 260.557 1392.23 249.195 1398.84 240.066C1401.75 236.056 1404.49 232.271 1406.99 229.374L1407.15 229.179L1407.34 229.357C1415.07 236.731 1420.66 246.521 1426.07 255.989C1428.6 260.401 1431.2 264.964 1433.95 269.125C1442.64 282.291 1453.15 296.638 1467.9 300.257C1480.94 303.455 1492.41 295.4 1502.52 288.293L1502.8 288.694C1492.6 295.86 1481.04 303.983 1467.79 300.734C1452.86 297.076 1442.29 282.641 1433.55 269.397C1430.79 265.223 1428.18 260.653 1425.65 256.234C1420.3 246.873 1414.77 237.196 1407.19 229.893C1404.75 232.748 1402.07 236.448 1399.24 240.357C1392.6 249.513 1384.35 260.909 1374.2 268.303C1362.3 276.972 1350.1 278.604 1336.9 273.297C1318.17 265.764 1302.33 251.375 1288.35 238.679C1286.05 236.587 1283.87 234.61 1281.7 232.672C1278.08 229.453 1274.49 226.115 1271.02 222.891C1270.21 222.132 1269.39 221.371 1268.58 220.615C1261.42 213.946 1254.26 207.11 1247.33 200.499C1235.29 189.007 1222.84 177.126 1210.15 165.839C1170.44 130.539 1116.05 82.1927 1045.7 85.0112C979.525 87.8469 917.647 129.203 863.054 165.69C856.246 170.238 849.816 174.537 843.402 178.745C833.225 185.422 822.931 192.229 812.974 198.808C795.676 210.244 777.791 222.066 760.184 233.441C716.495 261.66 670.999 289.927 621.096 319.854C574.145 347.969 519.418 381.851 469.51 419.987C464.47 423.838 459.453 427.96 454.141 432.325C431.087 451.272 404.955 472.749 370.769 475.007C350.709 476.333 328.232 471.188 302.058 459.278C279.258 448.901 256.654 434.76 236.711 422.284C231.327 418.915 226.241 415.734 221.23 412.669C217.011 410.083 212.798 407.489 208.585 404.898C177.14 385.555 144.625 365.551 111.472 349.112C107.56 347.179 103.003 344.938 98.4425 342.807C66.8159 328.036 40.8844 320.515 16.8318 319.142C15.1511 319.047 13.4949 319.001 11.8681 319.001C-41.3183 319.001 -65.4542 369.331 -83.2222 406.378L-83.6625 406.165C-73.1822 384.314 -61.6525 361.59 -46.1377 344.923C-29.6223 327.182 -10.6434 318.509 11.7334 318.506C13.4238 318.506 15.1315 318.555 16.861 318.656C40.9773 320.033 66.9651 327.566 98.6504 342.364C103.215 344.497 107.775 346.738 111.69 348.674C144.862 365.123 177.387 385.131 208.842 404.482C213.052 407.073 217.267 409.664 221.487 412.25C226.5 415.316 231.586 418.499 236.97 421.868C276.574 446.646 325.871 477.481 370.735 474.518C404.766 472.27 430.833 450.847 453.831 431.946C459.147 427.579 464.167 423.451 469.214 419.595C519.141 381.444 573.881 347.553 620.847 319.431C670.743 289.506 716.235 261.242 759.92 233.025C777.526 221.653 795.409 209.83 812.705 198.397C822.662 191.815 832.956 185.009 843.133 178.332C849.547 174.124 855.976 169.827 862.782 165.279C890.392 146.826 918.941 127.745 949.614 112.426C984.68 94.9128 1016.1 85.7844 1045.68 84.517C1047.68 84.4362 1049.68 84.3971 1051.68 84.3971L1051.68 84.402Z" fill="#FFFFFF4D" fill-opacity="0.3"/>
<path d="M1061.32 70.3794C1091.26 70.3794 1120.54 79.5691 1150.69 98.4035C1177.58 115.2 1200.57 136.53 1223.71 158.743C1236.25 170.788 1248.54 183.428 1260.42 195.654C1267.5 202.935 1274.81 210.463 1282.12 217.803L1283.8 219.482C1287.52 223.203 1291.36 227.049 1295.24 230.768C1297.24 232.691 1299.24 234.644 1301.36 236.711C1315.45 250.466 1331.42 266.054 1350.57 274.045C1364.13 279.701 1376.55 277.776 1388.56 268.158C1398.84 259.923 1407.05 247.383 1413.64 237.308C1416.2 233.393 1418.62 229.694 1420.83 226.753L1420.98 226.55L1421.17 226.724C1427.56 232.863 1432.18 241.012 1436.65 248.893C1438.74 252.563 1440.89 256.358 1443.16 259.817C1450.33 270.769 1459 282.701 1471.24 285.701C1482.06 288.35 1491.55 281.627 1499.92 275.696L1500.18 276.063C1491.73 282.05 1482.15 288.837 1471.14 286.139C1458.74 283.1 1450 271.087 1442.78 260.065C1440.5 256.593 1438.35 252.791 1436.26 249.116C1431.85 241.338 1427.29 233.298 1421.04 227.225C1418.88 230.12 1416.51 233.734 1414.02 237.553C1407.41 247.655 1399.18 260.228 1388.84 268.508C1376.7 278.236 1364.12 280.183 1350.4 274.458C1331.17 266.436 1315.17 250.814 1301.05 237.032C1298.93 234.964 1296.93 233.014 1294.93 231.091C1291.05 227.367 1287.2 223.519 1283.48 219.797L1281.81 218.119C1274.49 210.776 1267.18 203.246 1260.1 195.964C1248.22 183.743 1235.93 171.106 1223.39 159.066C1183.72 120.972 1129.38 68.8013 1057.09 70.8858C988.879 73.0193 925.645 116.79 869.856 155.411C863.693 159.675 857.873 163.705 852.058 167.671C838.841 176.682 825.491 185.884 812.579 194.783C798.028 204.811 782.98 215.18 768.18 225.241C723.365 255.705 677.459 286.151 627.837 318.322C580.639 348.883 525.486 385.919 474.271 428.902C469.268 433.1 464.287 437.58 459.013 442.322C435.628 463.351 409.122 487.186 374.016 490.457C353.279 492.39 330.063 487.433 303.038 475.305C279.533 464.755 256.381 450.239 235.956 437.431C230.887 434.252 226.102 431.253 221.383 428.354C215.304 424.61 209.141 420.788 203.179 417.094C173.035 398.406 141.866 379.08 110.135 362.822C106.169 360.796 101.553 358.447 96.9437 356.206C64.1135 340.256 38.5465 332.324 14.0437 330.489C-44.1113 326.134 -69.1743 379.787 -87.478 418.966L-87.884 418.775C-77.4235 396.38 -65.8961 373.098 -50.2052 356.133C-32.217 336.684 -11.1905 328.15 14.0755 330.042C38.637 331.881 64.2529 339.826 97.137 355.803C101.751 358.044 106.37 360.395 110.338 362.421C142.084 378.689 173.263 398.017 203.414 416.71C209.374 420.404 215.536 424.226 221.615 427.967C226.334 430.869 231.122 433.868 236.191 437.047C276.896 462.568 327.555 494.33 373.972 490.007C408.929 486.751 435.376 462.967 458.71 441.984C463.987 437.24 468.97 432.758 473.98 428.554C525.214 385.554 580.382 348.509 627.59 317.94C677.207 285.772 723.11 255.325 767.925 224.864C782.726 214.804 797.771 204.435 812.324 194.406C825.236 185.507 838.589 176.305 851.806 167.294C857.621 163.331 863.441 159.301 869.601 155.036C896.428 136.466 926.836 115.418 958.289 99.2891C994.292 80.8266 1026.61 71.3874 1057.07 70.4332C1058.49 70.3916 1059.91 70.372 1061.32 70.372L1061.32 70.3794Z" fill="#FFFFFF4D" fill-opacity="0.3"/>
<path d="M1071.09 56.3359C1102.23 56.3359 1132.49 66.426 1163.52 87.1321C1190.99 105.465 1214.85 129.237 1236.93 152.013C1249.34 164.804 1261.48 178.197 1273.21 191.147C1280.42 199.104 1287.88 207.33 1295.34 215.35L1295.99 216.054C1300.04 220.395 1304.23 224.882 1308.45 229.227C1310.3 231.133 1312.14 233.061 1314.1 235.102C1328.31 249.946 1344.42 266.774 1364.05 275.249C1378.14 281.331 1390.94 279.073 1403.19 268.349C1413.65 259.189 1421.82 245.444 1428.38 234.402C1430.62 230.627 1432.74 227.062 1434.68 224.131L1434.81 223.928L1434.99 224.099C1440.06 229 1443.71 235.51 1447.23 241.808C1448.87 244.734 1450.57 247.761 1452.36 250.521C1458.01 259.255 1464.85 268.775 1474.58 271.158C1483.16 273.262 1490.68 267.87 1497.32 263.111L1497.56 263.444C1491.18 268.014 1483.25 273.703 1474.48 271.555C1464.61 269.135 1457.71 259.544 1452.01 250.743C1450.22 247.974 1448.52 244.942 1446.88 242.009C1443.4 235.811 1439.82 229.406 1434.88 224.566C1432.98 227.451 1430.91 230.933 1428.72 234.615C1422.15 245.684 1413.97 259.458 1403.46 268.663C1397.67 273.73 1391.88 276.852 1385.77 278.212C1378.81 279.761 1371.44 278.892 1363.89 275.631C1344.18 267.121 1328.04 250.264 1313.81 235.393C1311.85 233.352 1310.01 231.424 1308.16 229.521C1303.93 225.173 1299.74 220.683 1295.69 216.341L1295.04 215.636C1287.58 207.616 1280.12 199.388 1272.91 191.431C1261.17 178.483 1249.04 165.095 1236.64 152.306C1199.66 114.168 1143.98 56.7519 1071 56.7519C1070.16 56.7519 1069.32 56.7592 1068.47 56.7739C998.249 58.188 933.699 104.398 876.75 145.17C871.199 149.143 865.957 152.896 860.709 156.608C840.363 170.996 819.855 185.716 800.022 199.948C792.064 205.658 784.114 211.364 776.168 217.055C734.384 246.736 684.884 281.799 634.567 316.803C589.747 347.954 531.565 389.863 479.022 437.832C474.049 442.371 469.1 447.198 463.857 452.309C440.147 475.428 413.274 501.634 377.256 505.921C355.85 508.47 331.901 503.706 304.036 491.365C279.834 480.644 256.151 465.761 235.254 452.63C230.482 449.63 225.973 446.797 221.525 444.052C213.609 439.158 205.595 434.148 197.844 429.301C168.977 411.249 139.129 392.584 108.787 376.551C104.777 374.437 100.11 371.985 95.4349 369.627C72.8109 358.22 42.7964 344.756 11.2456 341.854C-48.4016 336.372 -73.4499 391.397 -91.7414 431.574L-92.1133 431.405C-81.6697 408.467 -70.1473 384.627 -54.2803 367.361C-38.0608 349.713 -19.2751 341.059 2.93788 341.057C5.66798 341.057 8.44704 341.187 11.2824 341.448C42.9016 344.355 72.9627 357.839 95.6184 369.262C100.298 371.621 104.968 374.075 108.978 376.189C139.332 392.229 169.188 410.899 198.06 428.953C205.81 433.8 213.824 438.811 221.738 443.704C226.186 446.45 230.697 449.285 235.47 452.285C277.254 478.545 329.256 511.225 377.205 505.517C413.088 501.245 439.907 475.093 463.571 452.018C468.814 446.905 473.768 442.075 478.746 437.531C531.306 389.547 589.503 347.629 634.332 316.468C684.647 281.463 734.144 246.403 775.928 216.722C783.874 211.034 791.822 205.328 799.782 199.618C819.615 185.385 840.125 170.666 860.472 156.277C865.719 152.568 870.959 148.815 876.51 144.842C903.822 125.29 934.778 103.128 966.996 86.178C1003.92 66.7514 1037.11 57.0015 1068.46 56.3702C1069.34 56.3531 1070.21 56.3457 1071.09 56.3457L1071.09 56.3359Z" fill="#FFFFFF4D" fill-opacity="0.3"/>
<path d="M1080.98 42.2759C1113.25 42.2759 1144.45 53.2787 1176.31 75.8932C1204.15 95.6525 1228.06 121.007 1250.16 145.286C1262.34 158.767 1274.29 172.815 1285.84 186.402C1293.24 195.112 1300.9 204.116 1308.55 212.897C1313.16 218.169 1317.32 222.921 1321.66 227.689C1323.38 229.576 1325.09 231.479 1326.9 233.495C1341.22 249.433 1357.45 267.497 1377.54 276.454C1392.16 282.972 1405.33 280.361 1417.82 268.475C1428.45 258.351 1436.56 243.377 1443.07 231.347C1445.01 227.76 1446.84 224.372 1448.54 221.504L1448.66 221.303L1448.82 221.467C1452.57 225.133 1455.24 230.004 1457.82 234.714C1459.02 236.899 1460.26 239.157 1461.56 241.214C1465.7 247.735 1470.71 254.837 1477.93 256.606C1484.29 258.165 1490.07 253.925 1494.73 250.519L1494.95 250.815C1490.23 254.265 1484.37 258.561 1477.84 256.964C1470.5 255.165 1465.43 247.994 1461.26 241.413C1459.94 239.345 1458.7 237.08 1457.5 234.892C1454.97 230.275 1452.35 225.504 1448.74 221.896C1447.08 224.717 1445.29 228.025 1443.4 231.526C1430.42 255.486 1410.82 291.696 1377.4 276.794C1357.23 267.805 1340.98 249.709 1326.64 233.745C1324.83 231.729 1323.12 229.825 1321.4 227.939C1317.06 223.17 1312.89 218.416 1308.28 213.141C1300.63 204.36 1292.97 195.352 1285.57 186.642C1274.02 173.058 1262.08 159.009 1249.9 145.535C1202.48 93.4553 1150.38 42.6479 1080.99 42.6479C1080.62 42.6479 1080.25 42.6479 1079.87 42.6527C1008.03 43.3256 939.613 93.7783 884.641 134.317C879.359 138.212 874.371 141.89 869.376 145.533C839.919 167.186 811.015 188.763 784.171 208.852C763.866 223.958 743.525 239.132 723.851 253.807C696.682 274.073 668.588 295.031 641.313 315.268C596.011 348.855 537.169 394.155 483.789 446.747C478.823 451.64 473.879 456.834 468.644 462.332C444.635 487.55 417.422 516.134 380.511 521.367C330.992 528.583 277.661 494.968 234.808 467.957C230.248 465.082 225.94 462.366 221.688 459.731C211.954 453.69 202.112 447.478 192.596 441.472C164.989 424.044 136.442 406.024 107.46 390.255C102.098 387.341 97.929 385.113 93.9439 383.023C69.2306 370.176 39.7495 356.582 8.46535 353.198C-52.6766 346.582 -77.7103 402.981 -95.9895 444.16L-96.3247 444.011C-85.9032 420.533 -74.3857 396.137 -58.3351 378.563C-42.2405 360.937 -23.5257 352.286 -1.37145 352.286C1.84792 352.286 5.13832 352.469 8.50697 352.834C39.8522 356.225 69.3726 369.833 94.1176 382.698C98.1027 384.787 102.274 387.019 107.639 389.935C136.628 405.709 165.182 423.733 192.794 441.163C202.31 447.17 212.15 453.382 221.884 459.423C226.136 462.058 230.444 464.774 235.006 467.648C277.808 494.625 331.077 528.201 380.46 521.005C417.243 515.792 444.41 487.256 468.38 462.08C473.617 456.58 478.564 451.383 483.535 446.487C536.932 393.881 595.789 348.572 641.098 314.976C668.372 294.74 696.466 273.784 723.633 253.516C743.307 238.841 763.649 223.667 783.953 208.561C810.8 188.472 839.704 166.894 869.16 145.239C874.156 141.596 879.144 137.916 884.423 134.023C912.109 113.606 943.491 90.4631 976.299 72.8152C1013.93 52.574 1047.81 42.5867 1079.87 42.2857C1080.24 42.2833 1080.62 42.2808 1080.99 42.2808L1080.98 42.2759Z" fill="#FFFFFF4D" fill-opacity="0.3"/>
<path d="M1091.08 28.194C1091.14 28.194 1091.19 28.194 1091.25 28.194C1124.57 28.2625 1156.59 40.1704 1189.14 64.6028C1217.63 85.9867 1242.4 113.984 1263.39 138.546C1275.49 152.781 1287.33 167.6 1298.78 181.933C1306.27 191.304 1314.01 200.99 1321.76 210.432C1325.87 215.437 1330.31 220.803 1334.87 226.137C1336.47 228.004 1338.06 229.885 1339.74 231.874C1354.15 248.905 1370.48 268.212 1391.02 277.649C1425.38 293.435 1444.83 254.139 1457.7 228.138C1459.36 224.786 1460.93 221.62 1462.39 218.865L1462.49 218.669L1462.65 218.826C1465.06 221.256 1466.76 224.488 1468.4 227.612C1469.15 229.053 1469.93 230.543 1470.76 231.901C1473.57 236.523 1476.79 240.949 1481.27 242.045C1485.39 243.053 1489.13 240.205 1492.12 237.917L1492.32 238.177C1489.27 240.508 1485.47 243.408 1481.19 242.363C1476.6 241.24 1473.33 236.753 1470.48 232.072C1469.65 230.707 1468.87 229.212 1468.11 227.766C1466.52 224.73 1464.87 221.593 1462.57 219.218C1461.15 221.921 1459.61 225.014 1458 228.285C1451.53 241.34 1443.49 257.591 1432.66 268.755C1426.77 274.828 1420.56 278.789 1414.21 280.531C1406.85 282.547 1399 281.676 1390.89 277.947C1370.28 268.481 1353.93 249.148 1339.5 232.087C1337.81 230.098 1336.22 228.219 1334.63 226.352C1330.06 221.016 1325.62 215.648 1321.51 210.642C1313.76 201.198 1306.02 191.509 1298.53 182.138C1287.08 167.808 1275.24 152.989 1263.14 138.759C1215.56 83.0605 1163.1 28.6687 1091.25 28.5218L1091.09 28.5218C1017.2 28.5218 947.458 81.6218 891.4 124.299C886.776 127.82 882.407 131.145 878.023 134.455C852.299 153.975 825.015 175.009 792.153 200.652C751.905 231.935 711.883 263.458 673.174 293.941C664.778 300.552 656.402 307.151 648.038 313.735C579.926 367.322 530.732 411.092 488.532 455.661C483.596 460.875 478.681 466.394 473.477 472.237C449.148 499.561 421.573 530.529 383.742 536.809C332.701 545.417 278.057 510.894 234.15 483.154C229.868 480.448 225.824 477.894 221.829 475.408C210.297 468.222 198.658 460.801 187.399 453.623C161.03 436.809 133.761 419.423 106.114 403.958C102.413 401.89 97.5126 399.162 92.4364 396.415C67.2144 382.841 37.1804 368.435 5.66627 364.535C-21.3978 361.185 -43.5863 369.509 -62.1689 389.98C-78.3712 407.828 -89.8691 432.748 -100.256 456.742L-100.555 456.613C-90.1554 432.594 -78.6428 407.645 -62.4087 389.762C-43.7502 369.208 -21.4687 360.85 5.7079 364.214C37.2758 368.122 67.3417 382.54 92.593 396.131C97.6692 398.879 102.572 401.607 106.273 403.677C133.927 419.147 161.201 436.535 187.576 453.351C198.831 460.527 210.471 467.948 222.003 475.134C225.998 477.622 230.042 480.176 234.326 482.882C278.186 510.593 332.775 545.079 383.691 536.491C421.406 530.23 448.943 499.307 473.235 472.024C478.439 466.179 483.356 460.657 488.297 455.441C530.509 410.86 579.713 367.079 647.837 313.48C656.201 306.896 664.578 300.3 672.974 293.689C711.68 263.204 751.705 231.681 791.952 200.398C824.815 174.754 852.101 153.72 877.825 134.198C882.209 130.888 886.578 127.563 891.202 124.042C919.371 102.597 951.299 78.2895 984.897 59.7658C1023.42 38.5263 1058.16 28.2013 1091.09 28.1989L1091.08 28.194Z" fill="#FFFFFF4D" fill-opacity="0.3"/>
<path d="M1100.91 14.1045C1101.49 14.1045 1102.06 14.107 1102.64 14.1143C1120.52 14.3222 1138.4 18.1145 1155.76 25.386C1171.31 31.8966 1186.42 41.0325 1201.97 53.3197C1231.1 76.3428 1255.77 105.908 1276.61 131.814C1288.64 146.812 1300.4 162.412 1311.78 177.5C1319.33 187.522 1327.15 197.883 1334.97 207.976C1339.65 214.007 1343.94 219.443 1348.08 224.594C1349.68 226.558 1351.26 228.535 1352.93 230.63C1367.34 248.627 1383.66 269.03 1404.51 278.851C1413.47 283.101 1422.06 283.771 1430.05 280.845C1438.97 277.579 1447.22 269.982 1455.3 257.616C1462.2 247.037 1467.8 234.698 1472.3 224.785C1473.7 221.714 1475.01 218.815 1476.25 216.231L1476.34 216.04L1476.48 216.197C1477.57 217.396 1478.29 218.998 1478.99 220.549C1479.3 221.239 1479.62 221.954 1479.97 222.602C1481.1 224.736 1482.53 226.987 1484.61 227.493C1486.5 227.955 1488.18 226.5 1489.52 225.328L1489.71 225.543C1488.39 226.693 1486.58 228.269 1484.54 227.769C1482.36 227.239 1480.88 224.926 1479.72 222.737C1479.37 222.081 1479.05 221.362 1478.73 220.669C1478.07 219.209 1477.39 217.701 1476.41 216.551C1475.2 219.084 1473.92 221.915 1472.56 224.907C1468.06 234.831 1462.45 247.179 1455.53 257.775C1447.43 270.192 1439.12 277.828 1430.15 281.114C1422.09 284.067 1413.42 283.392 1404.38 279.11C1383.48 269.26 1367.13 248.833 1352.71 230.808C1351.03 228.714 1349.45 226.737 1347.86 224.772C1343.71 219.62 1339.42 214.181 1334.74 208.15C1326.92 198.055 1319.11 187.691 1311.56 177.669C1300.18 162.583 1288.42 146.983 1276.39 131.987C1230.98 75.5428 1176.37 15.2495 1102.64 14.3956C1026.59 13.5637 955.414 69.4334 898.218 114.335C894.23 117.464 890.465 120.422 886.676 123.377C859.91 144.314 831.606 166.906 800.143 192.449C752.529 231.028 706.136 269.507 654.77 312.199C608.025 351.042 547.426 403.467 493.283 464.575C488.305 470.166 483.353 476.072 478.111 482.328C453.515 511.676 425.634 544.941 386.984 552.254C363.631 556.704 337.538 552.572 307.213 539.624C280.985 528.423 255.78 512.461 233.543 498.38C229.526 495.836 225.731 493.433 221.979 491.089C208.671 482.766 195.257 474.124 182.287 465.769C157.131 449.56 131.116 432.798 104.773 417.67C100.977 415.49 95.9738 412.63 90.9342 409.818C63.8505 394.754 34.4379 380.219 2.87489 375.886C-24.8253 372.005 -47.4394 380.263 -66.2593 401.128C-82.6426 419.292 -94.1429 444.784 -104.518 469.336L-104.78 469.226C-94.395 444.652 -82.8848 419.135 -66.4722 400.937C-50.5928 383.333 -32.0224 374.672 -9.9929 374.672C-5.81688 374.672 -1.51878 374.983 2.91408 375.604C17.2008 377.566 32.0405 381.76 48.2771 388.427C60.9052 393.612 74.1033 400.132 91.0737 409.571C96.1157 412.383 101.119 415.245 104.915 417.425C131.265 432.558 157.28 449.322 182.441 465.532C195.411 473.887 208.822 482.528 222.128 490.852C225.881 493.198 229.675 495.601 233.692 498.146C278.6 526.583 334.49 561.974 386.927 551.982C425.477 544.686 453.322 511.465 477.888 482.152C483.133 475.896 488.085 469.984 493.068 464.394C547.221 403.271 607.832 350.837 654.584 311.986C705.95 269.292 752.346 230.813 799.959 192.234C831.422 166.691 859.729 144.096 886.497 123.16C890.287 120.204 894.051 117.246 898.039 114.117C926.676 91.6345 959.135 66.1524 993.513 46.7381C1032.38 24.789 1067.53 14.1069 1100.91 14.1069L1100.91 14.1045Z" fill="#FFFFFF4D" fill-opacity="0.3"/>
<path d="M1110.81 0.000577168C1111.89 0.000577262 1112.96 0.0128454 1114.03 0.0348792C1132.24 0.414092 1150.4 4.55142 1168.02 12.3294C1183.8 19.2975 1199.1 29.0156 1214.8 42.0343C1243.14 65.537 1267.61 95.8366 1289.83 125.079C1301.82 140.845 1313.51 157.233 1324.82 173.083C1336.59 189.593 1348.77 206.663 1361.29 223.051C1362.69 224.879 1364.07 226.709 1365.54 228.649C1380.09 247.875 1396.59 269.667 1417.99 280.056C1427.09 284.475 1435.79 285.169 1443.85 282.118C1453.11 278.615 1461.6 270.345 1469.82 256.842C1476.84 245.321 1482.4 231.994 1486.86 221.287C1487.98 218.598 1489.04 216.056 1490.05 213.732L1486.97 212.946L1487.03 212.709L1490.38 213.565L1490.33 213.697C1489.31 216.056 1488.23 218.645 1487.09 221.382C1482.62 232.096 1477.06 245.433 1470.03 256.969C1461.78 270.521 1453.25 278.823 1443.94 282.346C1435.81 285.421 1427.05 284.724 1417.88 280.274C1396.43 269.858 1379.91 248.041 1365.35 228.793C1363.88 226.856 1362.49 225.023 1361.1 223.198C1348.57 206.808 1336.39 189.735 1324.61 173.222C1313.31 157.375 1301.62 140.987 1289.64 125.223C1244.32 65.5957 1189.63 1.85032 1114.03 0.274625C1035.88 -1.36466 963.35 57.304 905.073 104.434C901.78 107.096 898.531 109.726 895.324 112.307C814.557 177.34 735.525 245.962 661.498 310.673C591.549 371.823 541.132 422.041 498.032 473.501C493.142 479.339 488.278 485.49 483.129 492.001C458.171 523.555 429.884 559.318 390.223 567.708C366.212 572.787 339.4 568.86 308.253 555.707C281.35 544.345 255.649 528.028 232.973 513.634C229.208 511.244 225.651 508.985 222.131 506.776C207.066 497.32 191.909 487.447 177.252 477.901C153.288 462.288 128.504 446.145 103.438 431.385C67.8729 410.439 35.5468 392.659 0.0891273 387.234C-28.2643 382.896 -51.3066 391.107 -70.354 412.335C-86.9404 430.819 -98.4285 456.849 -108.774 481.928L-108.999 481.835C-98.6462 456.737 -87.1483 430.685 -70.5351 412.171C-54.7193 394.545 -36.1587 385.867 -14.1047 385.867C-9.5128 385.867 -4.77428 386.244 0.12819 386.992C16.7634 389.537 34.3235 395.164 53.8161 404.195C70.8893 412.105 87.0891 421.468 103.563 431.172C128.633 445.937 153.417 462.08 177.387 477.695C192.043 487.242 207.198 497.114 222.263 506.571C225.786 508.782 229.343 511.038 233.108 513.429C279.048 542.59 336.222 578.884 390.177 567.471C429.751 559.098 458.009 523.372 482.943 491.851C488.095 485.338 492.958 479.188 497.851 473.347C540.961 421.877 591.385 371.652 661.344 310.492C735.373 245.778 814.408 177.156 895.177 112.121C898.385 109.54 901.633 106.91 904.926 104.248C934.018 80.721 966.99 54.0548 1002.14 33.7328C1041.38 11.0546 1076.97 0.00057421 1110.81 0.000577168L1110.81 0.000577168Z" fill="#FFFFFF4D" fill-opacity="0.3"/>
</svg>
