<svg width="237" height="40" viewBox="0 0 237 40" fill="none" xmlns="http://www.w3.org/2000/svg">
<path d="M1.02911 17.9414C0.460354 17.9414 0 18.4018 0 18.9705V21.0287C0 21.5975 0.460354 22.0578 1.02911 22.0578C1.59786 22.0578 2.05821 21.5975 2.05821 21.0287V18.9705C2.05821 18.4018 1.59786 17.9414 1.02911 17.9414Z" fill="black"/>
<path d="M4.9627 14.2383C4.39395 14.2383 3.93359 14.6986 3.93359 15.2674V24.7317C3.93359 25.3005 4.39395 25.7608 4.9627 25.7608C5.53145 25.7608 5.99181 25.3005 5.99181 24.7317V15.2674C5.99181 14.6986 5.53145 14.2383 4.9627 14.2383Z" fill="black"/>
<path d="M8.89825 16.3398C8.32949 16.3398 7.86914 16.8002 7.86914 17.369V22.6291C7.86914 23.1978 8.32949 23.6582 8.89825 23.6582C9.467 23.6582 9.92735 23.1978 9.92735 22.6291V17.369C9.92735 16.8002 9.46631 16.3398 8.89825 16.3398Z" fill="black"/>
<path d="M12.8299 10.6523C12.2611 10.6523 11.8008 11.1127 11.8008 11.6815V28.3187C11.8008 28.8874 12.2611 29.3478 12.8299 29.3478C13.3986 29.3478 13.859 28.8874 13.859 28.3187V11.6815C13.859 11.1127 13.3986 10.6523 12.8299 10.6523Z" fill="black"/>
<path d="M16.7615 5.47656C16.1928 5.47656 15.7324 5.93692 15.7324 6.50567V33.4909C15.7324 34.0597 16.1928 34.52 16.7615 34.52C17.3303 34.52 17.7906 34.0597 17.7906 33.4909V6.50567C17.7906 5.9376 17.3303 5.47656 16.7615 5.47656Z" fill="black"/>
<path d="M20.6951 11.3086C20.1264 11.3086 19.666 11.7689 19.666 12.3377V27.6597C19.666 28.2285 20.1264 28.6888 20.6951 28.6888C21.2639 28.6888 21.7242 28.2285 21.7242 27.6597V12.3377C21.7242 11.7696 21.2632 11.3086 20.6951 11.3086Z" fill="black"/>
<path d="M24.7224 6.16448C24.1256 6.14802 23.6899 6.61866 23.6865 7.18673L23.5156 32.7984C23.5122 33.3665 23.9698 33.8303 24.5379 33.8344C24.5399 33.8344 24.542 33.8344 24.5448 33.8344C25.1101 33.8344 25.5704 33.3782 25.5739 32.8122L25.7447 7.20045C25.7488 6.63238 25.2912 6.16791 24.7224 6.16448Z" fill="black"/>
<path d="M28.5623 0C27.9936 0 27.5332 0.460354 27.5332 1.02911V38.9709C27.5332 39.5396 27.9936 40 28.5623 40C29.1311 40 29.5914 39.5396 29.5914 38.9709V1.02911C29.5914 0.460354 29.1311 0 28.5623 0Z" fill="black"/>
<path d="M32.4959 4.39062C31.9272 4.39062 31.4668 4.85098 31.4668 5.41973V34.5778C31.4668 35.1465 31.9272 35.6069 32.4959 35.6069C33.0647 35.6069 33.525 35.1465 33.525 34.5778V5.41973C33.525 4.85098 33.064 4.39062 32.4959 4.39062Z" fill="black"/>
<path d="M36.4315 11.3086C35.8627 11.3086 35.4023 11.7689 35.4023 12.3377V27.6597C35.4023 28.2285 35.8627 28.6888 36.4315 28.6888C37.0002 28.6888 37.4606 28.2285 37.4606 27.6597V12.3377C37.4606 11.7696 37.0002 11.3086 36.4315 11.3086Z" fill="black"/>
<path d="M40.365 6.96484C39.7963 6.96484 39.3359 7.4252 39.3359 7.99395V32.0064C39.3359 32.5752 39.7963 33.0355 40.365 33.0355C40.9338 33.0355 41.3942 32.5752 41.3942 32.0064V7.99395C41.3942 7.4252 40.9338 6.96484 40.365 6.96484Z" fill="black"/>
<path d="M44.2986 12.8867C43.7299 12.8867 43.2695 13.3471 43.2695 13.9158V26.0833C43.2695 26.652 43.7299 27.1124 44.2986 27.1124C44.8674 27.1124 45.3277 26.652 45.3277 26.0833V13.9158C45.3277 13.3478 44.8674 12.8867 44.2986 12.8867Z" fill="black"/>
<path d="M48.2322 15.5391C47.6635 15.5391 47.2031 15.9994 47.2031 16.5682V23.4289C47.2031 23.9976 47.6635 24.458 48.2322 24.458C48.801 24.458 49.2613 23.9976 49.2613 23.4289V16.5682C49.2613 15.9994 48.8003 15.5391 48.2322 15.5391Z" fill="black"/>
<path d="M52.1639 14.3281C51.5951 14.3281 51.1348 14.7885 51.1348 15.3572V24.6398C51.1348 25.2085 51.5951 25.6689 52.1639 25.6689C52.7326 25.6689 53.193 25.2085 53.193 24.6398V15.3572C53.193 14.7885 52.7326 14.3281 52.1639 14.3281Z" fill="black"/>
<path d="M56.0975 17.25C55.5287 17.25 55.0684 17.7104 55.0684 18.2791V21.7239C55.0684 22.2926 55.5287 22.753 56.0975 22.753C56.6662 22.753 57.1266 22.2926 57.1266 21.7239V18.2791C57.1266 17.7104 56.6655 17.25 56.0975 17.25Z" fill="black"/>
<path d="M60.0311 18.2266C59.4623 18.2266 59.002 18.6869 59.002 19.2557V20.7424C59.002 21.3111 59.4623 21.7715 60.0311 21.7715C60.5998 21.7715 61.0602 21.3111 61.0602 20.7424V19.2557C61.0602 18.6869 60.5998 18.2266 60.0311 18.2266Z" fill="black"/>
<path d="M81.3135 12.8318C80.8642 11.7927 80.2183 11.3996 79.4319 11.3996C78.7018 11.3996 78.0278 11.8489 78.0278 12.4948C78.0278 13.1127 78.4209 13.5058 79.2073 13.7867L80.9765 14.4326C83.1109 15.1908 85.189 15.9772 85.189 18.8136C85.189 21.7343 82.2964 23.3912 79.3477 23.3912C76.6798 23.3912 74.1523 21.8185 73.5625 19.2629L76.7359 18.28C77.101 19.2629 77.8873 20.1897 79.3477 20.1897C80.3868 20.1897 81.1731 19.5157 81.1731 18.7855C81.1731 18.3081 80.8361 17.8868 79.9655 17.5498L78.2805 16.9601C75.416 15.921 74.0961 14.4326 74.0961 12.4387C74.0961 9.79882 76.5393 8.19806 79.2634 8.19806C82.0156 8.19806 83.841 9.68648 84.6835 11.9612L81.3135 12.8318ZM94.6812 8.19806C97.9951 8.19806 102.32 10.6975 102.32 15.8087C102.32 20.9198 97.9951 23.335 94.6812 23.335C91.3674 23.335 87.0144 20.9198 87.0144 15.8087C87.0144 10.6975 91.3674 8.19806 94.6812 8.19806ZM94.6812 11.7647C92.8558 11.7647 90.918 13.1407 90.918 15.8087C90.918 18.3923 92.8558 19.7684 94.6812 19.7684C96.4786 19.7684 98.4444 18.3923 98.4444 15.8087C98.4444 13.1407 96.4786 11.7647 94.6812 11.7647ZM110.099 23.2788C107.319 23.2788 104.567 21.4534 104.567 16.8477V8.45081H108.582V16.5669C108.582 18.954 109.509 19.7684 111.054 19.7684C113.188 19.7684 114.452 17.7464 114.761 16.7354V8.45081H118.777V23.0542H114.761V20.3582C114.48 21.1164 112.907 23.2788 110.099 23.2788ZM130.375 8.22615C133.155 8.22615 135.908 10.0516 135.908 14.6572V23.0542H131.892V14.9381C131.892 12.551 130.965 11.7366 129.42 11.7366C127.286 11.7366 126.022 13.7586 125.713 14.7696V23.0542H121.697V8.45081H125.713V11.1468C125.994 10.3886 127.567 8.22615 130.375 8.22615ZM149.416 3.19922H153.432V10.6413V23.0542H149.416V21.2568C149.332 21.8466 147.899 23.335 145.372 23.335C142.03 23.335 138.154 20.9198 138.154 15.7244C138.154 10.6975 142.03 8.19806 145.372 8.19806C147.899 8.19806 149.332 9.77073 149.416 10.0797V3.19922ZM145.933 19.7684C147.899 19.7684 149.612 18.4204 149.612 15.7244C149.612 13.1127 147.899 11.7647 145.933 11.7647C143.911 11.7647 142.058 13.1407 142.058 15.7244C142.058 18.3923 143.911 19.7684 145.933 19.7684ZM163.486 8.19806C166.153 8.19806 168.4 9.34948 169.776 11.7085L166.687 13.1407C165.901 12.3544 165.142 11.7647 163.542 11.7647C161.716 11.7647 159.779 13.1407 159.779 15.7806C159.779 18.3923 161.716 19.7403 163.542 19.7403C165.142 19.7403 165.901 19.1787 166.687 18.3923L169.804 19.8246C168.4 22.1836 166.21 23.2788 163.486 23.2788C160.228 23.2788 155.875 20.9198 155.875 15.7806C155.875 10.6975 160.228 8.19806 163.486 8.19806ZM180.785 8.22615C183.565 8.22615 186.317 10.0516 186.317 14.6572V23.0542H182.301V14.9381C182.301 12.551 181.375 11.7366 179.83 11.7366C177.696 11.7366 176.432 13.7586 176.123 14.7696V23.0542H172.107V3.19922H176.123V11.1468C176.404 10.3886 177.977 8.22615 180.785 8.22615ZM196.231 8.19806C199.545 8.19806 204.122 10.6975 203.252 17.1567H192.636C193.142 18.9821 194.658 19.9369 196.624 19.9369C198.449 19.9369 199.151 19.5157 200.191 18.954L202.409 21.1164C201.145 22.4363 199.348 23.335 196.484 23.335C192.833 23.335 188.564 20.8356 188.564 15.8087C188.564 10.6975 192.917 8.19806 196.231 8.19806ZM196.231 11.6242C194.77 11.6242 193.226 12.5229 192.692 14.3202H199.713C199.264 12.5229 197.663 11.6242 196.231 11.6242ZM212.94 8.19806C215.608 8.19806 217.855 9.34948 219.231 11.7085L216.142 13.1407C215.356 12.3544 214.597 11.7647 212.997 11.7647C211.171 11.7647 209.233 13.1407 209.233 15.7806C209.233 18.3923 211.171 19.7403 212.997 19.7403C214.597 19.7403 215.356 19.1787 216.142 18.3923L219.259 19.8246C217.855 22.1836 215.664 23.2788 212.94 23.2788C209.683 23.2788 205.33 20.9198 205.33 15.7806C205.33 10.6975 209.683 8.19806 212.94 8.19806ZM231.756 23.0542L226.729 17.2128L225.578 18.4204V23.0542H221.562V17.8587V3.19922H225.578V13.5058L230.268 8.45081H235.07L229.201 14.6011L236.39 23.0542H231.756Z" fill="black"/>
<path d="M75.7977 30.0625C76.5428 30.0625 77.1274 30.3321 77.5514 30.8712L77.0335 31.2437C76.7185 30.8197 76.3005 30.6077 75.7796 30.6077C75.3555 30.6077 75.0118 30.7167 74.7483 30.9348C74.4848 31.1529 74.347 31.4497 74.3348 31.8253C74.3348 32.1524 74.4348 32.4174 74.6347 32.6203C74.8346 32.8232 75.1829 32.9944 75.6796 33.1337C76.3338 33.3275 76.77 33.4987 76.9881 33.6471C77.2061 33.7955 77.3712 33.9787 77.4833 34.1968C77.5953 34.4149 77.6514 34.6875 77.6514 35.0146C77.6514 35.5355 77.4651 35.9641 77.0925 36.3003C76.72 36.6365 76.2399 36.8106 75.6524 36.8228C74.7256 36.8228 74.0289 36.4987 73.5625 35.8505L74.1349 35.4689C74.456 36.0019 74.9467 36.2715 75.6069 36.2776C76.037 36.2776 76.3853 36.1579 76.6519 35.9187C76.9184 35.6794 77.0517 35.378 77.0517 35.0146C77.0517 34.8025 77.0138 34.6284 76.9381 34.4921C76.8624 34.3558 76.7473 34.2377 76.5928 34.1377C76.4383 34.0378 76.2415 33.9469 76.0022 33.8651C75.7629 33.7834 75.4828 33.688 75.1617 33.5789C74.6771 33.4214 74.3182 33.2003 74.085 32.9156C73.8517 32.6309 73.7351 32.2675 73.7351 31.8253C73.7351 31.3043 73.9305 30.8803 74.3212 30.5532C74.7119 30.2261 75.2041 30.0625 75.7977 30.0625ZM88.3842 30.0625C89.3352 30.0625 90.0742 30.3987 90.6012 31.0711L90.1106 31.48C89.9288 31.2074 89.6865 30.9939 89.3837 30.8394C89.0808 30.6849 88.7476 30.6077 88.3842 30.6077C87.5846 30.6077 86.9334 30.8712 86.4306 31.3982C85.9278 31.9252 85.6704 32.6067 85.6583 33.4426C85.6583 34.2725 85.9112 34.9494 86.417 35.4734C86.9228 35.9974 87.5785 36.2655 88.3842 36.2776C88.7294 36.2776 89.0808 36.1912 89.4382 36.0186C89.7956 35.846 90.0773 35.5991 90.2832 35.2781L90.7739 35.6506C90.2045 36.432 89.4079 36.8228 88.3842 36.8228C87.3907 36.8167 86.5926 36.4956 85.9899 35.8596C85.3872 35.2236 85.0767 34.4179 85.0586 33.4426C85.0586 32.4552 85.369 31.6481 85.9899 31.0211C86.6108 30.3942 87.4089 30.0746 88.3842 30.0625ZM98.9352 30.2261V33.061H102.533V30.2261H103.133V36.6592H102.533V33.6062H98.9352V36.6592H98.3355V30.2261H98.9352ZM115.293 30.2261V30.7712H111.958V33.061H115.084V33.6062H111.958V36.114H115.438V36.6592H111.358V30.2261H115.293ZM125.008 36.114C125.928 36.114 126.655 35.8808 127.188 35.4144C127.721 34.9479 127.991 34.3058 127.997 33.4881C127.997 32.6158 127.732 31.9464 127.202 31.48C126.672 31.0135 125.931 30.7773 124.98 30.7712H123.726V36.114H125.008ZM125.135 30.2261C126.213 30.2261 127.057 30.5168 127.665 31.0983C128.274 31.6799 128.585 32.4764 128.597 33.4881C128.597 34.0817 128.462 34.6193 128.192 35.1009C127.923 35.5825 127.535 35.9626 127.029 36.2412C126.524 36.5199 125.904 36.6592 125.171 36.6592H123.127V30.2261H125.135ZM136.885 30.2261V34.0878C136.885 34.7844 137.029 35.3205 137.317 35.696C137.605 36.0716 138.042 36.2655 138.63 36.2776C139.781 36.2776 140.362 35.5173 140.374 33.9969V30.2261H140.974V34.1514C140.974 34.9934 140.777 35.6476 140.384 36.114C139.99 36.5804 139.405 36.8167 138.63 36.8228C137.867 36.8228 137.287 36.591 136.89 36.1276C136.493 35.6642 136.292 35.0206 136.286 34.1968V30.2261H136.885ZM149.681 30.2261V36.114H152.679V36.6592H149.081V30.2261H149.681ZM164.021 30.2261V30.7712H160.686V33.061H163.812V33.6062H160.686V36.114H164.166V36.6592H160.086V30.2261H164.021ZM173.854 33.061C174.321 33.061 174.681 32.9565 174.935 32.7475C175.19 32.5385 175.317 32.2614 175.317 31.9161C175.317 31.5708 175.193 31.2952 174.944 31.0893C174.696 30.8833 174.327 30.7773 173.836 30.7712H172.537V33.061H173.854ZM173.672 30.2261C175.156 30.2261 175.905 30.7894 175.917 31.9161C175.917 32.8672 175.368 33.4184 174.272 33.5698L176.144 36.6592H175.462L173.654 33.6062H172.537V36.6592H171.937V30.2261H173.672Z" fill="black"/>
</svg>
