<svg width="90" height="7" viewBox="0 0 90 7" fill="none" xmlns="http://www.w3.org/2000/svg">
<path d="M2.0553 0.199219C2.70459 0.199219 3.21399 0.434125 3.58351 0.903938L3.13217 1.22858C2.85768 0.859069 2.49344 0.674311 2.03946 0.674311C1.66995 0.674311 1.37037 0.769329 1.14075 0.959366C0.911119 1.1494 0.791026 1.40806 0.780469 1.73535C0.780469 2.0204 0.867569 2.25135 1.04177 2.42819C1.21597 2.60503 1.5195 2.75416 1.95236 2.87557C2.52247 3.04449 2.90255 3.19362 3.09258 3.32295C3.28262 3.45228 3.42647 3.61196 3.52412 3.802C3.62178 3.99204 3.67061 4.22958 3.67061 4.51464C3.67061 4.96861 3.50829 5.34209 3.18364 5.63506C2.859 5.92803 2.44065 6.0798 1.92861 6.09036C1.12095 6.09036 0.513889 5.80794 0.107422 5.24311L0.606268 4.91055C0.886045 5.37508 1.31363 5.60999 1.88902 5.61527C2.26381 5.61527 2.56734 5.51101 2.79961 5.3025C3.03188 5.09399 3.14801 4.83136 3.14801 4.51464C3.14801 4.32988 3.11502 4.17811 3.04903 4.05934C2.98305 3.94057 2.88275 3.83763 2.74814 3.75053C2.61353 3.66343 2.44197 3.58425 2.23346 3.51298C2.02495 3.44172 1.7808 3.35858 1.50102 3.26356C1.07872 3.12631 0.765952 2.93364 0.562718 2.68553C0.359485 2.43743 0.257868 2.1207 0.257868 1.73535C0.257868 1.28137 0.428109 0.911857 0.768591 0.626801C1.10907 0.341746 1.53798 0.199219 2.0553 0.199219ZM13.0236 0.199219C13.8524 0.199219 14.4964 0.492192 14.9556 1.07814L14.528 1.43446C14.3697 1.19691 14.1585 1.01083 13.8946 0.876225C13.6306 0.741615 13.3403 0.674311 13.0236 0.674311C12.3268 0.674311 11.7593 0.903938 11.3212 1.36319C10.883 1.82245 10.6587 2.41631 10.6481 3.14479C10.6481 3.86798 10.8685 4.45789 11.3093 4.91451C11.7501 5.37112 12.3215 5.60471 13.0236 5.61527C13.3245 5.61527 13.6306 5.54004 13.9421 5.3896C14.2535 5.23915 14.499 5.02404 14.6785 4.74426L15.1061 5.06891C14.6099 5.74988 13.9157 6.09036 13.0236 6.09036C12.1579 6.08508 11.4624 5.8053 10.9371 5.25103C10.4119 4.69676 10.1414 3.99468 10.1255 3.14479C10.1255 2.28434 10.3961 1.58094 10.9371 1.03459C11.4782 0.488233 12.1737 0.209776 13.0236 0.199219ZM22.2182 0.341746V2.81222H25.3538V0.341746H25.8764V5.94783H25.3538V3.28732H22.2182V5.94783H21.6956V0.341746H22.2182ZM36.4725 0.341746V0.816838H33.5666V2.81222H36.2904V3.28732H33.5666V5.47274H36.5992V5.94783H33.044V0.341746H36.4725ZM44.9387 5.47274C45.741 5.47274 46.3745 5.26951 46.839 4.86304C47.3036 4.45657 47.5385 3.89702 47.5438 3.18438C47.5438 2.42423 47.3128 1.84093 46.8509 1.43446C46.389 1.02799 45.7437 0.822117 44.9149 0.816838H43.8222V5.47274H44.9387ZM45.0495 0.341746C45.9892 0.341746 46.7242 0.595129 47.2547 1.10189C47.7853 1.60866 48.0558 2.30282 48.0664 3.18438C48.0664 3.7017 47.9489 4.1702 47.714 4.58986C47.4791 5.00952 47.1413 5.34077 46.7005 5.58359C46.2597 5.82642 45.7199 5.94783 45.0812 5.94783H43.2996V0.341746H45.0495ZM55.2893 0.341746V3.70698C55.2893 4.31404 55.4147 4.78122 55.6655 5.1085C55.9162 5.43579 56.2976 5.60471 56.8096 5.61527C57.8126 5.61527 58.3194 4.95278 58.3299 3.6278V0.341746H58.8525V3.76241C58.8525 4.49616 58.681 5.06627 58.3378 5.47274C57.9947 5.87921 57.4853 6.08508 56.8096 6.09036C56.1445 6.09036 55.6391 5.88844 55.2933 5.48462C54.9475 5.08079 54.772 4.51992 54.7667 3.802V0.341746H55.2893ZM66.4397 0.341746V5.47274H69.0527V5.94783H65.9171V0.341746H66.4397ZM78.9362 0.341746V0.816838H76.0303V2.81222H78.7541V3.28732H76.0303V5.47274H79.0629V5.94783H75.5077V0.341746H78.9362ZM87.5053 2.81222C87.9118 2.81222 88.2259 2.72116 88.4476 2.53905C88.6693 2.35693 88.7801 2.11542 88.7801 1.81453C88.7801 1.51364 88.6719 1.27345 88.4555 1.09398C88.2391 0.914496 87.9171 0.822117 87.4895 0.816838H86.3572V2.81222H87.5053ZM87.3469 0.341746C88.6403 0.341746 89.2922 0.832675 89.3027 1.81453C89.3027 2.6433 88.825 3.12367 87.8695 3.25564L89.5007 5.94783H88.9068L87.3311 3.28732H86.3572V5.94783H85.8346V0.341746H87.3469Z" fill="#FCFCFC"/>
</svg>
