<svg width="142" height="19" viewBox="0 0 142 19" fill="none" xmlns="http://www.w3.org/2000/svg">
<path d="M6.86195 9.18133C6.47039 8.27583 5.90751 7.93321 5.22227 7.93321C4.58597 7.93321 3.99862 8.32477 3.99862 8.88765C3.99862 9.42606 4.34124 9.76868 5.02648 10.0134L6.56828 10.5763C8.42822 11.2371 10.2392 11.9223 10.2392 14.3941C10.2392 16.9392 7.71851 18.3832 5.14885 18.3832C2.82392 18.3832 0.621354 17.0127 0.107422 14.7856L2.87286 13.9291C3.19101 14.7856 3.87625 15.5932 5.14885 15.5932C6.05435 15.5932 6.73959 15.0059 6.73959 14.3696C6.73959 13.9536 6.44591 13.5865 5.68725 13.2928L4.21888 12.7789C1.72264 11.8734 0.572408 10.5763 0.572408 8.83871C0.572408 6.53825 2.70155 5.14329 5.07543 5.14329C7.47378 5.14329 9.06452 6.44036 9.79871 8.42267L6.86195 9.18133ZM18.5111 5.14329C21.3989 5.14329 25.1677 7.32138 25.1677 11.7755C25.1677 16.2295 21.3989 18.3342 18.5111 18.3342C15.6233 18.3342 11.83 16.2295 11.83 11.7755C11.83 7.32138 15.6233 5.14329 18.5111 5.14329ZM18.5111 8.25136C16.9203 8.25136 15.2317 9.45053 15.2317 11.7755C15.2317 14.027 16.9203 15.2261 18.5111 15.2261C20.0773 15.2261 21.7904 14.027 21.7904 11.7755C21.7904 9.45053 20.0773 8.25136 18.5111 8.25136ZM31.9467 18.2853C29.5239 18.2853 27.1255 16.6945 27.1255 12.681V5.36355H30.6252V12.4362C30.6252 14.5164 31.4328 15.2261 32.7788 15.2261C34.6387 15.2261 35.74 13.4641 36.0092 12.5831V5.36355H39.5089V18.0895H36.0092V15.7401C35.7645 16.4008 34.394 18.2853 31.9467 18.2853ZM49.6162 5.16777C52.039 5.16777 54.4374 6.75851 54.4374 10.7721V18.0895H50.9377V11.0168C50.9377 8.9366 50.1301 8.22688 48.7841 8.22688C46.9242 8.22688 45.8229 9.98894 45.5537 10.87V18.0895H42.054V5.36355H45.5537V7.71295C45.7984 7.05218 47.1689 5.16777 49.6162 5.16777ZM66.2088 0.787109H69.7085V7.27244V18.0895H66.2088V16.5232C66.1354 17.0371 64.8873 18.3342 62.6847 18.3342C59.7725 18.3342 56.3952 16.2295 56.3952 11.702C56.3952 7.32139 59.7725 5.14329 62.6847 5.14329C64.8873 5.14329 66.1354 6.51378 66.2088 6.78298V0.787109ZM63.1742 15.2261C64.8873 15.2261 66.3801 14.0514 66.3801 11.702C66.3801 9.42606 64.8873 8.25136 63.1742 8.25136C61.4121 8.25136 59.7969 9.45053 59.7969 11.702C59.7969 14.027 61.4121 15.2261 63.1742 15.2261ZM78.4698 5.14329C80.7947 5.14329 82.7525 6.14668 83.9517 8.20241L81.2597 9.45053C80.5745 8.76529 79.9137 8.25136 78.5187 8.25136C76.928 8.25136 75.2394 9.45053 75.2394 11.751C75.2394 14.027 76.928 15.2017 78.5187 15.2017C79.9137 15.2017 80.5745 14.7122 81.2597 14.027L83.9762 15.2751C82.7525 17.3308 80.8437 18.2853 78.4698 18.2853C75.6309 18.2853 71.8376 16.2295 71.8376 11.751C71.8376 7.32138 75.6309 5.14329 78.4698 5.14329ZM93.5451 5.16777C95.9679 5.16777 98.3663 6.75851 98.3663 10.7721V18.0895H94.8667V11.0168C94.8667 8.9366 94.0591 8.22688 92.713 8.22688C90.8531 8.22688 89.7518 9.98894 89.4826 10.87V18.0895H85.983V0.787109H89.4826V7.71295C89.7273 7.05218 91.0978 5.16777 93.5451 5.16777ZM107.005 5.14329C109.893 5.14329 113.882 7.32139 113.123 12.9502H103.873C104.313 14.5409 105.635 15.373 107.348 15.373C108.939 15.373 109.55 15.0059 110.456 14.5164L112.389 16.4008C111.288 17.5511 109.722 18.3342 107.225 18.3342C104.044 18.3342 100.324 16.1561 100.324 11.7755C100.324 7.32138 104.117 5.14329 107.005 5.14329ZM107.005 8.12899C105.733 8.12899 104.387 8.91213 103.922 10.4784H110.04C109.648 8.91213 108.253 8.12899 107.005 8.12899ZM121.567 5.14329C123.892 5.14329 125.849 6.14668 127.049 8.20241L124.357 9.45053C123.671 8.76529 123.011 8.25136 121.616 8.25136C120.025 8.25136 118.336 9.45053 118.336 11.751C118.336 14.027 120.025 15.2017 121.616 15.2017C123.011 15.2017 123.671 14.7122 124.357 14.027L127.073 15.2751C125.849 17.3308 123.941 18.2853 121.567 18.2853C118.728 18.2853 114.934 16.2295 114.934 11.751C114.934 7.32138 118.728 5.14329 121.567 5.14329ZM137.964 18.0895L133.583 12.9991L132.579 14.0514V18.0895H129.08V13.562V0.787109H132.579V9.76868L136.666 5.36355H140.851L135.736 10.7231L142.002 18.0895H137.964Z" fill="#BFA4F2"/>
</svg>
