<svg width="28" height="26" viewBox="0 0 28 26" fill="none" xmlns="http://www.w3.org/2000/svg">
<path d="M14 11.2365C13.6823 11.233 13.372 11.3319 13.115 11.5186C12.8579 11.7053 12.6679 11.9698 12.573 12.273L12.05 13.8905H10.35C10.0333 13.8905 9.72465 13.9909 9.46841 14.1771C9.21218 14.3633 9.02147 14.6258 8.9236 14.9271C8.82574 15.2283 8.82575 15.5528 8.92363 15.854C9.02152 16.1553 9.21225 16.4178 9.4685 16.604L10.8445 17.604L10.319 19.222C10.2217 19.5228 10.2219 19.8468 10.3197 20.1475C10.4174 20.4482 10.6077 20.7103 10.8634 20.8964C11.119 21.0825 11.4269 21.183 11.7431 21.1837C12.0593 21.1843 12.3676 21.085 12.624 20.9L14 19.9L15.376 20.9C15.6309 21.0896 15.9401 21.192 16.2577 21.192C16.5754 21.192 16.8846 21.0896 17.1395 20.9C17.3985 20.7161 17.5913 20.4537 17.6895 20.1517C17.7876 19.8496 17.7859 19.524 17.6845 19.223L17.159 17.605L18.535 16.605C18.7912 16.4188 18.982 16.1563 19.0799 15.855C19.1777 15.5538 19.1778 15.2293 19.0799 14.9281C18.982 14.6268 18.7913 14.3643 18.5351 14.1781C18.2789 13.9919 17.9702 13.8915 17.6535 13.8915H15.9535L15.428 12.274C15.3332 11.9705 15.143 11.7057 14.8858 11.5188C14.6286 11.3319 14.3179 11.2329 14 11.2365ZM15.589 14.8905H17.6535C17.7592 14.8903 17.8623 14.9237 17.9479 14.9858C18.0335 15.0478 18.0972 15.1355 18.1298 15.236C18.1625 15.3366 18.1624 15.4449 18.1297 15.5454C18.0969 15.6459 18.0331 15.7335 17.9475 15.7955L16.277 17.009C16.1917 17.0711 16.1282 17.1585 16.0956 17.2588C16.063 17.3591 16.063 17.4672 16.0955 17.5675L16.7335 19.531C16.7663 19.6315 16.7664 19.7397 16.7339 19.8403C16.7013 19.9408 16.6377 20.0285 16.5522 20.0906C16.4668 20.1528 16.3638 20.1862 16.2581 20.1862C16.1524 20.1862 16.0495 20.1527 15.964 20.0905L14.294 18.8765C14.2086 18.8144 14.1056 18.7809 14 18.7809C13.8944 18.7809 13.7914 18.8144 13.706 18.8765L12.036 20.0905C11.9505 20.1527 11.8476 20.1862 11.7419 20.1862C11.6362 20.1862 11.5332 20.1528 11.4478 20.0906C11.3623 20.0285 11.2987 19.9408 11.2661 19.8403C11.2336 19.7397 11.2337 19.6315 11.2665 19.531L11.9045 17.5675C11.937 17.4672 11.937 17.3591 11.9044 17.2588C11.8718 17.1585 11.8083 17.0711 11.723 17.009L10.0525 15.7955C9.96686 15.7335 9.90308 15.6459 9.87032 15.5454C9.83756 15.4449 9.83751 15.3366 9.87018 15.236C9.90284 15.1355 9.96655 15.0478 10.0521 14.9858C10.1377 14.9237 10.2408 14.8903 10.3465 14.8905H12.411C12.5166 14.8905 12.6195 14.8571 12.7049 14.795C12.7903 14.7329 12.8539 14.6454 12.8865 14.545L13.5245 12.582C13.5574 12.482 13.621 12.3949 13.7063 12.3331C13.7916 12.2714 13.8942 12.2381 13.9995 12.2381C14.1048 12.2381 14.2074 12.2714 14.2927 12.3331C14.378 12.3949 14.4416 12.482 14.4745 12.582L15.1125 14.545C15.1452 14.6456 15.2089 14.7332 15.2945 14.7953C15.3801 14.8574 15.4832 14.8907 15.589 14.8905ZM22.5 3H21V2.5C21 2.10218 20.842 1.72064 20.5607 1.43934C20.2794 1.15804 19.8978 1 19.5 1C19.1022 1 18.7206 1.15804 18.4393 1.43934C18.158 1.72064 18 2.10218 18 2.5V3H11.5C11.3674 3 11.2402 3.05268 11.1464 3.14645C11.0527 3.24021 11 3.36739 11 3.5C11 3.63261 11.0527 3.75979 11.1464 3.85355C11.2402 3.94732 11.3674 4 11.5 4H18V5.5C18 5.89782 18.158 6.27936 18.4393 6.56066C18.7206 6.84196 19.1022 7 19.5 7C19.8978 7 20.2794 6.84196 20.5607 6.56066C20.842 6.27936 21 5.89782 21 5.5V4H22.5C23.4279 4.00106 24.3176 4.37015 24.9737 5.0263C25.6299 5.68244 25.9989 6.57207 26 7.5V8H3.5C3.36739 8 3.24021 8.05268 3.14645 8.14645C3.05268 8.24021 3 8.36739 3 8.5C3 8.63261 3.05268 8.75979 3.14645 8.85355C3.24021 8.94732 3.36739 9 3.5 9H26V20.5C25.9989 21.4279 25.6299 22.3176 24.9737 22.9737C24.3176 23.6299 23.4279 23.9989 22.5 24H5.5C4.57207 23.9989 3.68244 23.6299 3.0263 22.9737C2.37015 22.3176 2.00106 21.4279 2 20.5V7.5C2.00106 6.57207 2.37015 5.68244 3.0263 5.0263C3.68244 4.37015 4.57207 4.00106 5.5 4H7V5.5C7 5.89782 7.15804 6.27936 7.43934 6.56066C7.72064 6.84196 8.10218 7 8.5 7C8.89782 7 9.27936 6.84196 9.56066 6.56066C9.84196 6.27936 10 5.89782 10 5.5V2.5C10 2.10218 9.84196 1.72064 9.56066 1.43934C9.27936 1.15804 8.89782 1 8.5 1C8.10218 1 7.72064 1.15804 7.43934 1.43934C7.15804 1.72064 7 2.10218 7 2.5V3H5.5C4.30693 3.00132 3.16311 3.47585 2.31948 4.31948C1.47585 5.16311 1.00132 6.30693 1 7.5V20.5C1.00132 21.6931 1.47585 22.8369 2.31948 23.6805C3.16311 24.5241 4.30693 24.9987 5.5 25H22.5C23.6931 24.9987 24.8369 24.5241 25.6805 23.6805C26.5241 22.8369 26.9987 21.6931 27 20.5V7.5C26.9987 6.30693 26.5241 5.16311 25.6805 4.31948C24.8369 3.47585 23.6931 3.00132 22.5 3ZM20 5.5C20 5.63261 19.9473 5.75979 19.8536 5.85355C19.7598 5.94732 19.6326 6 19.5 6C19.3674 6 19.2402 5.94732 19.1464 5.85355C19.0527 5.75979 19 5.63261 19 5.5V2.5C19 2.36739 19.0527 2.24021 19.1464 2.14645C19.2402 2.05268 19.3674 2 19.5 2C19.6326 2 19.7598 2.05268 19.8536 2.14645C19.9473 2.24021 20 2.36739 20 2.5V5.5ZM8 2.5C8 2.36739 8.05268 2.24021 8.14645 2.14645C8.24021 2.05268 8.36739 2 8.5 2C8.63261 2 8.75979 2.05268 8.85355 2.14645C8.94732 2.24021 9 2.36739 9 2.5V5.5C9 5.63261 8.94732 5.75979 8.85355 5.85355C8.75979 5.94732 8.63261 6 8.5 6C8.36739 6 8.24021 5.94732 8.14645 5.85355C8.05268 5.75979 8 5.63261 8 5.5V2.5Z" fill="#BFA4F2" stroke="white" strokeWidth="0.1"/>
</svg>
