<svg width="26" height="27" viewBox="0 0 26 27" fill="none" xmlns="http://www.w3.org/2000/svg">
<path d="M23.6198 2.98545C23.5657 2.98326 23.5117 2.98289 23.4576 2.98442H21.4187V1.23222C21.4187 0.531348 20.7497 0.117188 20.0488 0.117188H18.1692C17.4683 0.117188 16.9586 0.531348 16.9586 1.23222V2.98436H9.31276V1.23222C9.31276 0.531348 8.80305 0.117188 8.10218 0.117188H6.22254C5.52172 0.117188 4.85268 0.531348 4.85268 1.23222V2.98436H2.81383C1.51232 2.94808 0.427833 3.97378 0.391551 5.27523C0.390027 5.32925 0.390393 5.3834 0.392588 5.43743V23.8512C0.392588 25.2529 1.41201 26.5591 2.81377 26.5591H23.4576C24.8594 26.5591 25.8788 25.2529 25.8788 23.8512V5.43743C25.9321 4.13653 24.9207 3.03875 23.6198 2.98545ZM18.1692 1.3915H20.1444V4.89582H18.1692V1.3915ZM6.2226 1.3915H8.03852V4.89582H6.2226V1.3915ZM24.6045 23.8512C24.6045 24.552 24.1585 25.2847 23.4576 25.2847H2.81383C2.11295 25.2847 1.66696 24.552 1.66696 23.8512V10.3117H24.6045V23.8512ZM24.6045 5.43743V9.03736H1.6669V5.43743C1.61293 4.84168 2.05216 4.31495 2.64791 4.26099C2.70303 4.25599 2.75852 4.25525 2.81377 4.25873H4.85268V4.95961C4.85268 5.66048 5.52166 6.1702 6.22254 6.1702H8.10218C8.75293 6.18806 9.2949 5.67494 9.31276 5.02418C9.31337 5.00266 9.31337 4.98113 9.31276 4.95961V4.25867H16.9586V4.95955C16.9408 5.6103 17.4539 6.15227 18.1046 6.17014C18.1262 6.17074 18.1477 6.17074 18.1692 6.17014H20.0489C20.7497 6.17014 21.4187 5.66042 21.4187 4.95955V4.25867H23.4576C24.0547 4.22105 24.5691 4.67454 24.6068 5.27157C24.6102 5.32681 24.6095 5.3823 24.6045 5.43743Z" fill="#323232"/>
<path d="M9.59992 19.0087L9.02649 22.1945C9.00381 22.3311 9.02624 22.4715 9.09045 22.5942C9.25357 22.906 9.63858 23.0266 9.95036 22.8634L12.8175 21.3661L15.6847 22.8634L15.9714 22.9272C16.1097 22.9296 16.2446 22.8846 16.3537 22.7997C16.5441 22.6606 16.6421 22.4278 16.6086 22.1944L16.0351 19.0086L18.3608 16.7786C18.5272 16.5988 18.5875 16.3451 18.52 16.1096C18.4342 15.8919 18.2409 15.7349 18.0103 15.6955L14.8245 15.2176L13.391 12.3185C13.3285 12.1895 13.2243 12.0853 13.0953 12.0228C12.7786 11.8695 12.3975 12.0019 12.2441 12.3185L10.8105 15.2176L7.62473 15.6955C7.39412 15.7348 7.20082 15.8919 7.11502 16.1096C7.04752 16.3451 7.10795 16.5988 7.2743 16.7786L9.59992 19.0087ZM11.3521 16.4282C11.5522 16.3983 11.7217 16.2651 11.7981 16.0778L12.8175 14.0389L13.837 16.0778C13.9134 16.2651 14.0829 16.3983 14.2829 16.4282L16.5449 16.7468L14.9201 18.3078C14.7688 18.4576 14.6978 18.6706 14.7289 18.8812L15.1112 21.1431L13.1042 20.06L12.8175 19.9963L12.5308 20.06L10.5237 21.1431L10.906 18.8812C10.9372 18.6706 10.8662 18.4576 10.7148 18.3078L9.09009 16.7468L11.3521 16.4282Z" fill="#323232"/>
</svg>
