<svg width="29" height="26" viewBox="0 0 29 26" fill="none" xmlns="http://www.w3.org/2000/svg">
<path d="M26.6028 19.0662C29.2415 15.3639 28.8381 10.2917 25.234 6.98763C23.5872 5.47803 21.4878 4.53824 19.2201 4.27579C19.2059 4.2584 19.1915 4.24117 19.1756 4.22469C17.2028 2.17536 14.3684 1 11.3994 1C5.74928 1 1 5.20976 1 10.6C1 12.4899 1.58704 14.3015 2.70219 15.8662L1.14437 20.7572C1.04645 21.0646 1.14277 21.4006 1.38859 21.6095C1.63483 21.8188 1.98219 21.859 2.26917 21.7131L7.00661 19.3042C7.97952 19.7231 9.0112 19.998 10.0796 20.123C12.1405 22.2903 14.9901 23.4 17.9056 23.4C19.4211 23.4 20.9311 23.0911 22.2981 22.5041L27.0358 24.9131C27.1505 24.9715 27.2747 25 27.3982 25C27.9381 25 28.3251 24.4739 28.1606 23.9572L26.6028 19.0662ZM7.32949 17.6945C7.10544 17.5881 6.8448 17.5916 6.62373 17.704L3.24949 19.4197L4.35136 15.9602C4.43157 15.7083 4.38224 15.4331 4.21947 15.2249C3.15995 13.8686 2.59989 12.2694 2.59989 10.6C2.59989 6.1888 6.54731 2.6 11.3994 2.6C13.3533 2.6 15.2343 3.19195 16.7601 4.25792C11.6215 4.77461 7.50624 8.78816 7.50624 13.8C7.50624 15.3588 7.90581 16.8595 8.65915 18.2041C8.20304 18.0682 7.75883 17.8983 7.32949 17.6945ZM22.6812 20.9039C22.4634 20.7932 22.2025 20.7865 21.9755 20.8945C20.7283 21.4869 19.321 21.8 17.9056 21.8C13.0535 21.8 9.10613 18.2112 9.10613 13.8C9.10613 9.3888 13.0535 5.8 17.9056 5.8C22.7577 5.8 26.7051 9.3888 26.7051 13.8C26.7051 15.4694 26.145 17.0686 25.0854 18.4248C24.9227 18.6331 24.8734 18.9083 24.9535 19.1602L26.0554 22.6197L22.6812 20.9039Z" fill="#BFA4F2" stroke="white" strokeWidth="0.5"/>
</svg>
