<svg width="27" height="27" viewBox="0 0 27 27" fill="none" xmlns="http://www.w3.org/2000/svg">
<path d="M12.7965 20.1199C13.0165 20.2265 13.2578 20.2799 13.4995 20.2799C13.7409 20.2799 13.9826 20.2265 14.203 20.1199L26.0379 14.3892C26.5586 14.1376 26.8819 13.6364 26.8819 13.0826C26.8819 12.5283 26.5586 12.0279 26.0379 11.7759L22.7806 10.1986L26.0379 8.62128C26.5586 8.36926 26.8819 7.86888 26.8819 7.31462C26.8819 6.76035 26.5586 6.25997 26.0379 6.00795L14.203 0.276874C13.7631 0.0637562 13.2373 0.0641614 12.7965 0.276874L0.96162 6.00795C0.440951 6.25956 0.117615 6.76035 0.117615 7.31462C0.117615 7.86888 0.440951 8.36926 0.961193 8.62128L4.21847 10.1986L0.961193 11.7759C0.440951 12.0279 0.117188 12.5283 0.117188 13.0826C0.117188 13.6364 0.440524 14.1376 0.960766 14.3892L4.21847 15.9665L0.961193 17.5439C0.440951 17.7955 0.117188 18.2967 0.117188 18.8505C0.117188 19.4044 0.440524 19.9056 0.960766 20.1572L12.7961 25.8879C13.0165 25.9944 13.2578 26.0479 13.4995 26.0479C13.7409 26.0479 13.9826 25.9944 14.203 25.8879L26.0379 20.1572C26.5586 19.9056 26.8819 19.4044 26.8819 18.8505C26.8819 18.2967 26.5586 17.7955 26.0379 17.5439L24.03 16.5715C23.6507 16.3879 23.1838 16.5305 22.9899 16.8915C22.7956 17.2521 22.9468 17.6938 23.3273 17.8781L25.3353 18.8505L13.4995 24.5812L1.66467 18.8505L5.91972 16.7898L12.7965 20.1199ZM6.27125 10.8517C6.27082 10.8509 6.2704 10.8501 6.2704 10.8501C6.41049 10.7824 6.53137 10.6751 6.60825 10.532C6.80217 10.171 6.65139 9.72941 6.27125 9.54506L1.66467 7.31462L13.4995 1.58354L25.3348 7.31421L13.4995 13.0449L8.73493 10.7379C8.35393 10.5531 7.88878 10.6969 7.69444 11.0575C7.5001 11.4185 7.6513 11.8602 8.03145 12.0445L12.7961 14.3515C13.016 14.4581 13.2574 14.5116 13.4991 14.5116C13.7404 14.5116 13.9822 14.4581 14.2026 14.3515L21.0794 11.0215L25.3344 13.0822L13.4995 18.8132L1.66467 13.0822L6.27125 10.8517Z" fill="#323232"/>
</svg>
