<svg width="21" height="29" viewBox="0 0 21 29" fill="none" xmlns="http://www.w3.org/2000/svg">
<path d="M13.9541 21.2835C17.6939 16.4696 20.0311 13.9593 20.0627 9.74769C20.1023 4.44866 15.8019 0.117188 10.5033 0.117188C5.26648 0.117188 0.985443 4.3583 0.945634 9.60431C0.913472 13.9302 3.29408 16.437 7.05973 21.2827C3.31359 21.8425 0.945634 23.2492 0.945634 24.9697C0.945634 26.1221 2.01092 27.1563 3.9453 27.8817C5.70595 28.5419 8.03528 28.9055 10.5042 28.9055C12.973 28.9055 15.3024 28.5419 17.063 27.8817C18.9974 27.1563 20.0627 26.1221 20.0627 24.9696C20.0627 23.2501 17.6969 21.8438 13.9541 21.2835ZM2.07012 9.6128C2.10521 4.98366 5.88228 1.24173 10.5034 1.24173C15.1792 1.24173 18.9731 5.06451 18.9382 9.73931C18.9083 13.739 16.4297 16.2038 12.4726 21.3623C11.7667 22.2819 11.1186 23.1514 10.505 24.002C9.89325 23.1509 9.258 22.297 8.5416 21.3619C4.42093 15.9875 2.03965 13.709 2.07012 9.6128ZM10.5042 27.781C5.67699 27.781 2.07012 26.2968 2.07012 24.9697C2.07012 23.9855 4.22633 22.7422 7.85175 22.3116C8.65316 23.3631 9.35578 24.3184 10.0449 25.2941C10.1502 25.4431 10.3212 25.5318 10.5037 25.5319C10.5038 25.5319 10.504 25.5319 10.5042 25.5319C10.6865 25.5319 10.8574 25.4435 10.9629 25.2948C11.6455 24.3319 12.3673 23.353 13.1619 22.3122C16.7839 22.7432 18.9382 23.9861 18.9382 24.9697C18.9381 26.2968 15.3313 27.781 10.5042 27.781Z" fill="#323232"/>
</svg>
