<svg width="28" height="25" viewBox="0 0 28 25" fill="none" xmlns="http://www.w3.org/2000/svg">
<path d="M23.4969 3.90234H1.72571C1.32494 3.90234 1 4.22728 1 4.62805V23.4966C1 23.8974 1.32494 24.2223 1.72571 24.2223H23.4969C23.8979 24.2223 24.2224 23.8974 24.2224 23.4966V4.62805C24.2226 4.22728 23.8979 3.90234 23.4969 3.90234ZM22.7712 22.7707H2.45141V5.35393H22.7712V22.7707Z" fill="#BFA4F2" stroke="white" strokeWidth="0.5"/>
<path d="M10.0871 18.3286C10.3178 18.4564 10.5998 18.4489 10.8234 18.309L16.6293 14.6804C16.9689 14.4678 17.072 14.0199 16.8594 13.6803C16.8009 13.5869 16.7223 13.5084 16.6293 13.4499L10.8234 9.82141C10.4836 9.60898 10.0359 9.7121 9.82327 10.0519C9.75134 10.1673 9.71289 10.3007 9.71289 10.4366V17.6936C9.71289 17.9574 9.85605 18.2005 10.0871 18.3286ZM11.1643 11.7461L14.8752 14.0649L11.1643 16.384V11.7461Z" fill="#BFA4F2" stroke="white" strokeWidth="0.5"/>
<path d="M26.3993 1H4.62805C4.22728 1 3.90234 1.32494 3.90234 1.72588C3.90234 2.12665 4.22728 2.45159 4.62805 2.45159H25.6735V20.5943C25.6735 20.995 25.9985 21.3198 26.3993 21.3198C26.8 21.3198 27.125 20.995 27.125 20.5943V1.72588C27.125 1.32494 26.8 1 26.3993 1Z" fill="#BFA4F2" stroke="white" strokeWidth="0.5"/>
</svg>
