<svg width="24" height="18" viewBox="0 0 24 18" fill="none" xmlns="http://www.w3.org/2000/svg">
<path d="M22.4619 17.18H7.12127C6.48901 17.18 5.97656 16.6676 5.97656 16.0353C5.97656 15.4031 6.48901 14.8906 7.12127 14.8906H22.4616C23.0938 14.8906 23.6063 15.4031 23.6063 16.0353C23.6063 16.6676 23.0942 17.18 22.4619 17.18Z" fill="#323232"/>
<path d="M22.4619 9.9945H7.12127C6.48901 9.9945 5.97656 9.48205 5.97656 8.84979C5.97656 8.21753 6.48901 7.70508 7.12127 7.70508H22.4616C23.0938 7.70508 23.6063 8.21753 23.6063 8.84979C23.6067 9.48205 23.0942 9.9945 22.4619 9.9945Z" fill="#323232"/>
<path d="M22.4619 2.80896H7.12127C6.48901 2.80896 5.97656 2.29651 5.97656 1.66424C5.97656 1.03198 6.48901 0.519531 7.12127 0.519531H22.4616C23.0938 0.519531 23.6063 1.03198 23.6063 1.66424C23.6063 2.29651 23.0942 2.80896 22.4619 2.80896Z" fill="#323232"/>
<path d="M2.20141 3.28954C3.05047 3.28954 3.73876 2.60125 3.73876 1.75219C3.73876 0.903138 3.05047 0.214844 2.20141 0.214844C1.35236 0.214844 0.664062 0.903138 0.664062 1.75219C0.664062 2.60125 1.35236 3.28954 2.20141 3.28954Z" fill="#323232"/>
<path d="M2.20141 10.3872C3.05047 10.3872 3.73876 9.6989 3.73876 8.84985C3.73876 8.00079 3.05047 7.3125 2.20141 7.3125C1.35236 7.3125 0.664062 8.00079 0.664062 8.84985C0.664062 9.6989 1.35236 10.3872 2.20141 10.3872Z" fill="#323232"/>
<path d="M2.20141 17.4829C3.05047 17.4829 3.73876 16.7946 3.73876 15.9456C3.73876 15.0965 3.05047 14.4082 2.20141 14.4082C1.35236 14.4082 0.664062 15.0965 0.664062 15.9456C0.664062 16.7946 1.35236 17.4829 2.20141 17.4829Z" fill="#323232"/>
</svg>
