<svg width="51" height="51" viewBox="0 0 51 51" fill="none"
    xmlns="http://www.w3.org/2000/svg" className="md:w-[51px] w-10 md:h-[51px] h-10 rounded-full">
    <path d="M25.6776 16.7826C28.7978 16.7826 29.1673 16.7963 30.3943 16.851C31.5347 16.9012 32.1505 17.0928 32.5611 17.2524C33.1039 17.4623 33.4962 17.7177 33.9022 18.1237C34.3127 18.5342 34.5636 18.922 34.7734 19.4648C34.9331 19.8753 35.1247 20.4957 35.1749 21.6315C35.2296 22.8632 35.2433 23.2326 35.2433 26.3482C35.2433 29.4683 35.2296 29.8378 35.1749 31.0649C35.1247 32.2053 34.9331 32.8211 34.7734 33.2316C34.5636 33.7745 34.3082 34.1668 33.9022 34.5727C33.4916 34.9833 33.1039 35.2342 32.5611 35.444C32.1505 35.6037 31.5302 35.7952 30.3943 35.8454C29.1627 35.9002 28.7932 35.9138 25.6776 35.9138C22.5575 35.9138 22.188 35.9002 20.961 35.8454C19.8206 35.7952 19.2048 35.6037 18.7942 35.444C18.2514 35.2342 17.8591 34.9787 17.4531 34.5727C17.0426 34.1622 16.7917 33.7745 16.5819 33.2316C16.4222 32.8211 16.2306 32.2007 16.1804 31.0649C16.1257 29.8333 16.112 29.4638 16.112 26.3482C16.112 23.2281 16.1257 22.8586 16.1804 21.6315C16.2306 20.4911 16.4222 19.8753 16.5819 19.4648C16.7917 18.922 17.0471 18.5297 17.4531 18.1237C17.8637 17.7131 18.2514 17.4623 18.7942 17.2524C19.2048 17.0928 19.8251 16.9012 20.961 16.851C22.188 16.7963 22.5575 16.7826 25.6776 16.7826ZM25.6776 14.6797C22.5073 14.6797 22.1105 14.6934 20.8652 14.7481C19.6244 14.8029 18.7714 15.0036 18.0324 15.2909C17.2615 15.592 16.6092 15.9889 15.9615 16.6412C15.3092 17.2889 14.9123 17.9412 14.6113 18.7076C14.3239 19.4511 14.1232 20.2996 14.0684 21.5403C14.0137 22.7902 14 23.187 14 26.3573C14 29.5276 14.0137 29.9245 14.0684 31.1698C14.1232 32.4105 14.3239 33.2636 14.6113 34.0025C14.9123 34.7734 15.3092 35.4258 15.9615 36.0735C16.6092 36.7212 17.2615 37.1227 18.0279 37.4192C18.7714 37.7065 19.6199 37.9072 20.8606 37.962C22.1059 38.0167 22.5028 38.0304 25.6731 38.0304C28.8434 38.0304 29.2402 38.0167 30.4856 37.962C31.7263 37.9072 32.5793 37.7065 33.3183 37.4192C34.0846 37.1227 34.7369 36.7212 35.3847 36.0735C36.0324 35.4258 36.4339 34.7734 36.7304 34.0071C37.0177 33.2636 37.2184 32.4151 37.2732 31.1744C37.3279 29.929 37.3416 29.5322 37.3416 26.3619C37.3416 23.1916 37.3279 22.7947 37.2732 21.5494C37.2184 20.3087 37.0177 19.4557 36.7304 18.7167C36.443 17.9412 36.0461 17.2889 35.3938 16.6412C34.7461 15.9934 34.0938 15.592 33.3274 15.2955C32.5839 15.0081 31.7354 14.8074 30.4947 14.7527C29.2448 14.6934 28.8479 14.6797 25.6776 14.6797Z" fill="black" />
    <path d="M25.9985 20.3594C22.6868 20.3594 20 23.0461 20 26.3579C20 29.6696 22.6868 32.3563 25.9985 32.3563C29.3102 32.3563 31.997 29.6696 31.997 26.3579C31.997 23.0461 29.3102 20.3594 25.9985 20.3594ZM25.9985 30.2489C23.85 30.2489 22.1074 28.5064 22.1074 26.3579C22.1074 24.2093 23.85 22.4668 25.9985 22.4668C28.147 22.4668 29.8895 24.2093 29.8895 26.3579C29.8895 28.5064 28.147 30.2489 25.9985 30.2489Z" fill="black" />
    <path d="M26.8008 20.1192C26.8008 20.8946 26.1713 21.5196 25.4004 21.5196C24.6249 21.5196 24 20.8901 24 20.1192C24 19.3437 24.6295 18.7188 25.4004 18.7188C26.1713 18.7188 26.8008 19.3482 26.8008 20.1192Z" fill="black" />
    <path d="M25.6776 16.7826C28.7978 16.7826 29.1673 16.7963 30.3943 16.851C31.5347 16.9012 32.1505 17.0928 32.5611 17.2524C33.1039 17.4623 33.4962 17.7177 33.9022 18.1237C34.3127 18.5342 34.5636 18.922 34.7734 19.4648C34.9331 19.8753 35.1247 20.4957 35.1749 21.6315C35.2296 22.8632 35.2433 23.2326 35.2433 26.3482C35.2433 29.4683 35.2296 29.8378 35.1749 31.0649C35.1247 32.2053 34.9331 32.8211 34.7734 33.2316C34.5636 33.7745 34.3082 34.1668 33.9022 34.5727C33.4916 34.9833 33.1039 35.2342 32.5611 35.444C32.1505 35.6037 31.5302 35.7952 30.3943 35.8454C29.1627 35.9002 28.7932 35.9138 25.6776 35.9138C22.5575 35.9138 22.188 35.9002 20.961 35.8454C19.8206 35.7952 19.2048 35.6037 18.7942 35.444C18.2514 35.2342 17.8591 34.9787 17.4531 34.5727C17.0426 34.1622 16.7917 33.7745 16.5819 33.2316C16.4222 32.8211 16.2306 32.2007 16.1804 31.0649C16.1257 29.8333 16.112 29.4638 16.112 26.3482C16.112 23.2281 16.1257 22.8586 16.1804 21.6315C16.2306 20.4911 16.4222 19.8753 16.5819 19.4648C16.7917 18.922 17.0471 18.5297 17.4531 18.1237C17.8637 17.7131 18.2514 17.4623 18.7942 17.2524C19.2048 17.0928 19.8251 16.9012 20.961 16.851C22.188 16.7963 22.5575 16.7826 25.6776 16.7826ZM25.6776 14.6797C22.5073 14.6797 22.1105 14.6934 20.8652 14.7481C19.6244 14.8029 18.7714 15.0036 18.0324 15.2909C17.2615 15.592 16.6092 15.9889 15.9615 16.6412C15.3092 17.2889 14.9123 17.9412 14.6113 18.7076C14.3239 19.4511 14.1232 20.2996 14.0684 21.5403C14.0137 22.7902 14 23.187 14 26.3573C14 29.5276 14.0137 29.9245 14.0684 31.1698C14.1232 32.4105 14.3239 33.2636 14.6113 34.0025C14.9123 34.7734 15.3092 35.4258 15.9615 36.0735C16.6092 36.7212 17.2615 37.1227 18.0279 37.4192C18.7714 37.7065 19.6199 37.9072 20.8606 37.962C22.1059 38.0167 22.5028 38.0304 25.6731 38.0304C28.8434 38.0304 29.2402 38.0167 30.4856 37.962C31.7263 37.9072 32.5793 37.7065 33.3183 37.4192C34.0846 37.1227 34.7369 36.7212 35.3847 36.0735C36.0324 35.4258 36.4339 34.7734 36.7304 34.0071C37.0177 33.2636 37.2184 32.4151 37.2732 31.1744C37.3279 29.929 37.3416 29.5322 37.3416 26.3619C37.3416 23.1916 37.3279 22.7947 37.2732 21.5494C37.2184 20.3087 37.0177 19.4557 36.7304 18.7167C36.443 17.9412 36.0461 17.2889 35.3938 16.6412C34.7461 15.9934 34.0938 15.592 33.3274 15.2955C32.5839 15.0081 31.7354 14.8074 30.4947 14.7527C29.2448 14.6934 28.8479 14.6797 25.6776 14.6797Z" fill="black" />
    <path d="M25.9985 20.3594C22.6868 20.3594 20 23.0461 20 26.3579C20 29.6696 22.6868 32.3563 25.9985 32.3563C29.3102 32.3563 31.997 29.6696 31.997 26.3579C31.997 23.0461 29.3102 20.3594 25.9985 20.3594ZM25.9985 30.2489C23.85 30.2489 22.1074 28.5064 22.1074 26.3579C22.1074 24.2093 23.85 22.4668 25.9985 22.4668C28.147 22.4668 29.8895 24.2093 29.8895 26.3579C29.8895 28.5064 28.147 30.2489 25.9985 30.2489Z" fill="black" />
    <path d="M26.8008 20.1192C26.8008 20.8946 26.1713 21.5196 25.4004 21.5196C24.6249 21.5196 24 20.8901 24 20.1192C24 19.3437 24.6295 18.7188 25.4004 18.7188C26.1713 18.7188 26.8008 19.3482 26.8008 20.1192Z" fill="black" />
</svg>